<svg width="1240" height="332" viewBox="0 0 1240 332" fill="none" xmlns="http://www.w3.org/2000/svg">
<g clip-path="url(#clip0_480_1191)">
<rect width="1240" height="332" rx="33" fill="#FDC500"/>
<path d="M2.05859 -236.446H-49.9805L-92.2537 31.7891H-40.2145L2.05859 -236.446Z" fill="#8A38F5" fill-opacity="0.15"/>
<path d="M169.293 -235.114H122.002L79.7286 33.1211H127.028L169.293 -235.114Z" fill="#8A38F5" fill-opacity="0.15"/>
<path d="M336.547 -233.796H294.004L251.73 34.4395H294.282L336.547 -233.796Z" fill="#8A38F5" fill-opacity="0.15"/>
<path d="M503.785 -232.452H465.982L423.709 35.7832H461.512L503.785 -232.452Z" fill="#8A38F5" fill-opacity="0.15"/>
<path d="M671.027 -231.147H637.972L595.699 37.0879H628.754L671.027 -231.147Z" fill="#8A38F5" fill-opacity="0.15"/>
<path d="M838.27 -229.799H809.954L767.689 38.4355H795.996L838.27 -229.799Z" fill="#8A38F5" fill-opacity="0.15"/>
<path d="M1005.52 -228.481H981.948L939.675 39.7539H963.243L1005.52 -228.481Z" fill="#8A38F5" fill-opacity="0.15"/>
<path d="M1172.77 -227.163H1153.95L1111.67 41.0723H1130.49L1172.77 -227.163Z" fill="#8A38F5" fill-opacity="0.15"/>
<path d="M164.914 -9.66864H124.262L81.9886 322.811H122.641L164.914 -9.66864Z" fill="#8A38F5" fill-opacity="0.15"/>
<path d="M332.785 -8.3757H295.939L253.666 324.104H290.52L332.785 -8.3757Z" fill="#8A38F5" fill-opacity="0.15"/>
<path d="M500.66 -7.04584H467.605L425.331 325.434H458.387L500.66 -7.04584Z" fill="#8A38F5" fill-opacity="0.15"/>
<path d="M668.52 -5.71164H639.254L596.989 326.768H626.246L668.52 -5.71164Z" fill="#8A38F5" fill-opacity="0.15"/>
<path d="M836.387 -4.40522H810.928L768.655 328.074H794.114L836.387 -4.40522Z" fill="#8A38F5" fill-opacity="0.15"/>
<path d="M1004.27 -3.0925H982.597L940.324 329.387H961.993L1004.27 -3.0925Z" fill="#8A38F5" fill-opacity="0.15"/>
<path d="M1172.13 -1.80365H1154.27L1111.99 330.676H1129.86L1172.13 -1.80365Z" fill="#8A38F5" fill-opacity="0.15"/>
<path d="M160.523 300.839H126.518L84.2451 569.074H118.25L160.523 300.839Z" fill="#8A38F5" fill-opacity="0.15"/>
<path d="M329.016 301.64H297.859L255.586 569.875H286.742L329.016 301.64Z" fill="#8A38F5" fill-opacity="0.15"/>
<path d="M497.523 302.425H469.216L426.943 570.66H455.258L497.523 302.425Z" fill="#8A38F5" fill-opacity="0.15"/>
<path d="M666.02 303.228H640.553L598.279 571.463H623.746L666.02 303.228Z" fill="#8A38F5" fill-opacity="0.15"/>
<path d="M834.516 304.005H811.897L769.624 572.24H792.242L834.516 304.005Z" fill="#8A38F5" fill-opacity="0.15"/>
<path d="M1003.02 304.814H983.246L940.973 573.049H960.743L1003.02 304.814Z" fill="#8A38F5" fill-opacity="0.15"/>
<path d="M1171.51 305.599H1154.59L1112.31 573.834H1129.23L1171.51 305.599Z" fill="#8A38F5" fill-opacity="0.15"/>
</g>
<defs>
<clipPath id="clip0_480_1191">
<rect width="1240" height="332" rx="33" fill="white"/>
</clipPath>
</defs>
</svg>
