<svg width="1440" height="1478" viewBox="0 0 1440 1478" fill="none" xmlns="http://www.w3.org/2000/svg">
<path d="M117.086 -4.57764e-05H42.2731L-6.10352e-05 164.126H74.821L117.086 -4.57764e-05Z" fill="#8A38F5" fill-opacity="0.23"/>
<path d="M282.441 1.29439H215.217L172.944 165.42H240.168L282.441 1.29439Z" fill="#8A38F5" fill-opacity="0.23"/>
<path d="M447.812 2.59273H388.177L345.904 166.718H405.539L447.812 2.59273Z" fill="#8A38F5" fill-opacity="0.23"/>
<path d="M613.184 3.89485H561.144L518.871 168.021H570.91L613.184 3.89485Z" fill="#8A38F5" fill-opacity="0.23"/>
<path d="M778.547 5.19661H734.096L691.831 169.322H736.274L778.547 5.19661Z" fill="#8A38F5" fill-opacity="0.23"/>
<path d="M943.91 6.49153H907.056L864.791 170.617H901.637L943.91 6.49153Z" fill="#8A38F5" fill-opacity="0.23"/>
<path d="M1109.27 7.79329H1080.02L1037.74 171.919H1067L1109.27 7.79329Z" fill="#8A38F5" fill-opacity="0.23"/>
<path d="M1274.63 9.09163H1252.97L1210.7 173.217H1232.36L1274.63 9.09163Z" fill="#8A38F5" fill-opacity="0.23"/>
<path d="M1440 10.3784H1425.93L1383.65 174.504H1397.73L1440 10.3784Z" fill="#8A38F5" fill-opacity="0.23"/>
<path d="M112.07 164.122H44.8459L2.58095 328.255H69.8054L112.07 164.122Z" fill="#8A38F5" fill-opacity="0.23"/>
<path d="M278.055 165.264H217.477L175.204 329.39H235.79L278.055 165.264Z" fill="#8A38F5" fill-opacity="0.23"/>
<path d="M444.062 166.391H390.124L347.851 330.525H401.789L444.062 166.391Z" fill="#8A38F5" fill-opacity="0.23"/>
<path d="M610.059 167.537H562.759L520.494 331.663H567.785L610.059 167.537Z" fill="#8A38F5" fill-opacity="0.23"/>
<path d="M776.043 168.672H735.391L693.118 332.805H733.77L776.043 168.672Z" fill="#8A38F5" fill-opacity="0.23"/>
<path d="M942.027 169.818H908.022L865.749 333.944H899.754L942.027 169.818Z" fill="#8A38F5" fill-opacity="0.23"/>
<path d="M1108.02 170.945H1080.66L1038.39 335.078H1065.75L1108.02 170.945Z" fill="#8A38F5" fill-opacity="0.23"/>
<path d="M1274 172.087H1253.28L1211.01 336.213H1231.73L1274 172.087Z" fill="#8A38F5" fill-opacity="0.23"/>
<path d="M1440 173.218H1425.93L1383.65 337.351H1397.73L1440 173.218Z" fill="#8A38F5" fill-opacity="0.23"/>
<path d="M107.062 328.264H47.4348L5.16168 492.389H64.7976L107.062 328.264Z" fill="#8A38F5" fill-opacity="0.23"/>
<path d="M273.684 329.23H219.745L177.472 493.356H231.41L273.684 329.23Z" fill="#8A38F5" fill-opacity="0.23"/>
<path d="M440.305 330.205H392.056L349.791 494.331H398.032L440.305 330.205Z" fill="#8A38F5" fill-opacity="0.23"/>
<path d="M606.91 331.183H564.367L522.094 495.309H564.637L606.91 331.183Z" fill="#8A38F5" fill-opacity="0.23"/>
<path d="M773.531 332.155H736.677L694.404 496.28H731.258L773.531 332.155Z" fill="#8A38F5" fill-opacity="0.23"/>
<path d="M940.141 333.122H908.984L866.711 497.247H897.867L940.141 333.122Z" fill="#8A38F5" fill-opacity="0.23"/>
<path d="M1106.77 334.1H1081.31L1039.04 498.226H1064.5L1106.77 334.1Z" fill="#8A38F5" fill-opacity="0.23"/>
<path d="M1273.39 335.075H1253.63L1211.35 499.2H1231.12L1273.39 335.075Z" fill="#8A38F5" fill-opacity="0.23"/>
<path d="M1440 336.045H1425.93L1383.65 500.171H1397.73L1440 336.045Z" fill="#8A38F5" fill-opacity="0.23"/>
<path d="M102.059 492.378H50.0195L7.74635 656.504H59.7855L102.059 492.378Z" fill="#8A38F5" fill-opacity="0.23"/>
<path d="M269.293 493.193H222.002L179.729 657.319H227.028L269.293 493.193Z" fill="#8A38F5" fill-opacity="0.23"/>
<path d="M436.547 494H394.004L351.73 658.126H394.282L436.547 494Z" fill="#8A38F5" fill-opacity="0.23"/>
<path d="M603.785 494.823H565.982L523.709 658.949H561.512L603.785 494.823Z" fill="#8A38F5" fill-opacity="0.23"/>
<path d="M771.027 495.623H737.972L695.699 659.748H728.754L771.027 495.623Z" fill="#8A38F5" fill-opacity="0.23"/>
<path d="M938.27 496.445H909.954L867.689 660.57H895.996L938.27 496.445Z" fill="#8A38F5" fill-opacity="0.23"/>
<path d="M1105.52 497.252H1081.95L1039.67 661.378H1063.24L1105.52 497.252Z" fill="#8A38F5" fill-opacity="0.23"/>
<path d="M1272.77 498.059H1253.95L1211.67 662.185H1230.49L1272.77 498.059Z" fill="#8A38F5" fill-opacity="0.23"/>
<path d="M1440 498.87H1425.93L1383.65 662.996H1397.73L1440 498.87Z" fill="#8A38F5" fill-opacity="0.23"/>
<path d="M97.043 656.506H52.6006L10.3275 820.64H54.7698L97.043 656.506Z" fill="#8A38F5" fill-opacity="0.23"/>
<path d="M264.914 657.161H224.262L181.989 821.295H222.641L264.914 657.161Z" fill="#8A38F5" fill-opacity="0.23"/>
<path d="M432.785 657.801H395.939L353.666 821.934H390.52L432.785 657.801Z" fill="#8A38F5" fill-opacity="0.23"/>
<path d="M600.66 658.455H567.605L525.331 822.589H558.387L600.66 658.455Z" fill="#8A38F5" fill-opacity="0.23"/>
<path d="M768.52 659.114H739.254L696.989 823.248H726.246L768.52 659.114Z" fill="#8A38F5" fill-opacity="0.23"/>
<path d="M936.387 659.761H910.928L868.655 823.895H894.114L936.387 659.761Z" fill="#8A38F5" fill-opacity="0.23"/>
<path d="M1104.27 660.409H1082.6L1040.32 824.542H1061.99L1104.27 660.409Z" fill="#8A38F5" fill-opacity="0.23"/>
<path d="M1272.13 661.044H1254.27L1211.99 825.178H1229.86L1272.13 661.044Z" fill="#8A38F5" fill-opacity="0.23"/>
<path d="M1440 661.699H1425.93L1383.65 825.833H1397.73L1440 661.699Z" fill="#8A38F5" fill-opacity="0.23"/>
<path d="M92.0312 820.637H55.1773L12.9042 984.763H49.7581L92.0312 820.637Z" fill="#8A38F5" fill-opacity="0.23"/>
<path d="M260.523 821.129H226.518L184.245 985.255H218.25L260.523 821.129Z" fill="#8A38F5" fill-opacity="0.23"/>
<path d="M429.016 821.62H397.859L355.586 985.746H386.742L429.016 821.62Z" fill="#8A38F5" fill-opacity="0.23"/>
<path d="M597.523 822.099H569.216L526.943 986.225H555.258L597.523 822.099Z" fill="#8A38F5" fill-opacity="0.23"/>
<path d="M766.02 822.591H740.553L698.279 986.716H723.746L766.02 822.591Z" fill="#8A38F5" fill-opacity="0.23"/>
<path d="M934.516 823.066H911.897L869.624 987.192H892.242L934.516 823.066Z" fill="#8A38F5" fill-opacity="0.23"/>
<path d="M1103.02 823.561H1083.25L1040.97 987.687H1060.74L1103.02 823.561Z" fill="#8A38F5" fill-opacity="0.23"/>
<path d="M1271.51 824.041H1254.59L1212.31 988.167H1229.23L1271.51 824.041Z" fill="#8A38F5" fill-opacity="0.23"/>
<path d="M1440 824.536H1425.93L1383.65 988.662H1397.73L1440 824.536Z" fill="#8A38F5" fill-opacity="0.23"/>
<path d="M87.0195 984.775H57.7623L15.4892 1148.9H44.7464L87.0195 984.775Z" fill="#8A38F5" fill-opacity="0.23"/>
<path d="M256.145 985.091H228.778L186.505 1149.22H213.871L256.145 985.091Z" fill="#8A38F5" fill-opacity="0.23"/>
<path d="M425.258 985.419H399.799L357.526 1149.54H382.985L425.258 985.419Z" fill="#8A38F5" fill-opacity="0.23"/>
<path d="M594.391 985.75H570.823L528.55 1149.88H552.117L594.391 985.75Z" fill="#8A38F5" fill-opacity="0.23"/>
<path d="M763.516 986.07H741.847L699.574 1150.2H721.242L763.516 986.07Z" fill="#8A38F5" fill-opacity="0.23"/>
<path d="M932.629 986.397H912.859L870.594 1150.52H890.356L932.629 986.397Z" fill="#8A38F5" fill-opacity="0.23"/>
<path d="M1101.76 986.709H1083.89L1041.61 1150.84H1059.48L1101.76 986.709Z" fill="#8A38F5" fill-opacity="0.23"/>
<path d="M1270.87 987.052H1254.9L1212.63 1151.18H1228.6L1270.87 987.052Z" fill="#8A38F5" fill-opacity="0.23"/>
<path d="M1440 987.36H1425.93L1383.65 1151.49H1397.73L1440 987.36Z" fill="#8A38F5" fill-opacity="0.23"/>
<path d="M82.0156 1148.89H60.347L18.0738 1313.02H39.7425L82.0156 1148.89Z" fill="#8A38F5" fill-opacity="0.23"/>
<path d="M251.754 1149.06H231.035L188.77 1313.19H209.481L251.754 1149.06Z" fill="#8A38F5" fill-opacity="0.23"/>
<path d="M421.504 1149.22H401.735L359.47 1313.35H379.231L421.504 1149.22Z" fill="#8A38F5" fill-opacity="0.23"/>
<path d="M591.25 1149.39H572.438L530.165 1313.51H548.985L591.25 1149.39Z" fill="#8A38F5" fill-opacity="0.23"/>
<path d="M761.004 1149.54H743.142L700.869 1313.67H718.739L761.004 1149.54Z" fill="#8A38F5" fill-opacity="0.23"/>
<path d="M930.762 1149.71H913.841L871.568 1313.83H888.489L930.762 1149.71Z" fill="#8A38F5" fill-opacity="0.23"/>
<path d="M1100.5 1149.87H1084.53L1042.26 1314H1058.23L1100.5 1149.87Z" fill="#8A38F5" fill-opacity="0.23"/>
<path d="M1270.25 1150.04H1255.23L1212.96 1314.16H1227.98L1270.25 1150.04Z" fill="#8A38F5" fill-opacity="0.23"/>
<path d="M1440 1150.19H1425.93L1383.65 1314.33H1397.73L1440 1150.19Z" fill="#8A38F5" fill-opacity="0.23"/>
<path d="M77.0078 1313.03H62.9359L20.6628 1477.16H34.7347L77.0078 1313.03Z" fill="#8A38F5" fill-opacity="0.23"/>
<path d="M205.11 1477.16L247.383 1313.03H233.303L191.038 1477.16H205.11Z" fill="#8A38F5" fill-opacity="0.23"/>
<path d="M375.477 1477.16L417.75 1313.03H403.678L361.405 1477.16H375.477Z" fill="#8A38F5" fill-opacity="0.23"/>
<path d="M545.852 1477.16L588.125 1313.03H574.053L531.78 1477.16H545.852Z" fill="#8A38F5" fill-opacity="0.23"/>
<path d="M716.231 1477.16L758.496 1313.03H744.424L702.151 1477.16H716.231Z" fill="#8A38F5" fill-opacity="0.23"/>
<path d="M886.602 1477.16L928.875 1313.03H914.803L872.53 1477.16H886.602Z" fill="#8A38F5" fill-opacity="0.23"/>
<path d="M1056.98 1477.16L1099.25 1313.03H1085.18L1042.91 1477.16H1056.98Z" fill="#8A38F5" fill-opacity="0.23"/>
<path d="M1227.36 1477.16L1269.62 1313.03H1255.55L1213.28 1477.16H1227.36Z" fill="#8A38F5" fill-opacity="0.23"/>
<path d="M1440 1313.03H1425.93L1383.65 1477.16H1397.73L1440 1313.03Z" fill="#8A38F5" fill-opacity="0.23"/>
</svg>
