<svg width="76" height="56" viewBox="0 0 76 56" fill="none" xmlns="http://www.w3.org/2000/svg">
<path d="M0 6.28689L12.5917 12.5917L25.1655 6.28689L12.5917 0L0 6.28689Z" fill="white"/>
<path d="M25.1641 6.28689L37.7558 12.5917L50.3476 6.28689L37.7558 0L25.1641 6.28689Z" fill="white"/>
<path d="M62.9214 12.5917L75.5132 6.28689L62.9214 0L50.3477 6.28689L62.9214 12.5917Z" fill="white"/>
<path d="M12.5917 12.5923L0 21.6095L12.5917 30.6446L25.1655 21.6095L12.5917 12.5923Z" fill="white"/>
<path d="M25.1641 21.6095L37.7558 30.6446L50.3476 21.6095L37.7558 12.5923L25.1641 21.6095Z" fill="white"/>
<path d="M62.9214 12.5923L50.3477 21.6095L62.9214 30.6446L75.5132 21.6095L62.9214 12.5923Z" fill="white"/>
<path d="M12.5869 30.6534L0 43.2402L12.5869 55.8271L25.1738 43.2402L12.5869 30.6534Z" fill="white"/>
<path d="M37.7666 30.6436L25.1797 43.2305L37.7666 55.8174L50.3535 43.2305L37.7666 30.6436Z" fill="white"/>
<path d="M62.9306 30.6465L50.3438 43.2334L62.9306 55.8203L75.5175 43.2334L62.9306 30.6465Z" fill="white"/>
</svg>
