<svg width="550" height="166" viewBox="0 0 550 166" fill="none" xmlns="http://www.w3.org/2000/svg">
<path d="M179.977 51.7077H159.644L149.186 96.8443H185.123L179.977 51.7077ZM279.216 51.7077H258.883L248.425 96.8443H284.356L279.216 51.7077ZM279.216 51.7077H258.883L248.425 96.8443H284.356L279.216 51.7077ZM159.644 51.7077L149.186 96.8443H185.123L179.977 51.7077H159.644ZM536.697 0H234.798L218.323 3.23593L207.275 0H8.40232L0 165.152H166.977L171.034 146.233H174.673L182.228 165.152H266.222L270.273 146.233H273.912L281.467 165.152H341.192L341.011 163.923L403.189 165.012L411.08 165.152H471.567L473.494 145.69L493.742 147.612L498.871 165.152H550L536.697 0ZM13.5541 149.624L17.7889 20.721L132.074 15.5313L119.858 55.2824L50.0956 51.7106L48.3199 121.771L87.0664 121.832L90.2789 100.612L65.7116 102.493L67.2069 76.4357L120.226 73.9854L106.873 149.621H13.5541V149.624ZM291.987 149.624L284.438 130.705H257.712L253.661 149.624H192.751L185.196 130.705H158.476L154.419 149.624H108.71L137.031 15.727H137.036L141.332 15.5313H205.049L217.599 104.02L236.308 15.5313H304.288L323.289 149.624H291.987ZM326.219 147.965L312.142 15.5313H419.193L419.485 55.0283L355.862 56.2462L355.216 114.753L390.771 116.432L391.27 104.817L379.322 102.493L380.812 76.4357L420.309 74.6104L420.478 149.624L326.216 147.968L326.219 147.965ZM498.952 130.705L459.701 126.969L468.176 149.621H422.467L425.624 15.5284H518.803L537.81 149.621H506.508L498.952 130.702V130.705ZM459.376 47.2422L448.127 100.288L498.876 96.8443L493.73 51.7077L459.376 47.2422ZM258.883 51.7077L248.425 96.8443H284.356L279.216 51.7077H258.883ZM159.644 51.7077L149.186 96.8443H185.123L179.977 51.7077H159.644ZM179.977 51.7077H159.644L149.186 96.8443H185.123L179.977 51.7077ZM279.216 51.7077H258.883L248.425 96.8443H284.356L279.216 51.7077ZM279.216 51.7077H258.883L248.425 96.8443H284.356L279.216 51.7077ZM179.977 51.7077H159.644L149.186 96.8443H185.123L179.977 51.7077Z" fill="#FDC500"/>
</svg>
