<svg width="1440" height="653" viewBox="0 0 1440 653" fill="none" xmlns="http://www.w3.org/2000/svg">
<path d="M1281.28 696.365H1322.82L1374.46 522.148H1332.92L1281.28 696.365Z" fill="#8A38F5" fill-opacity="0.49"/>
<path d="M1075.45 695.844H1113.51L1165.15 521.627H1127.09L1075.45 695.844Z" fill="#8A38F5" fill-opacity="0.49"/>
<path d="M869.621 695.332H904.201L955.841 521.114H921.251L869.621 695.332Z" fill="#8A38F5" fill-opacity="0.49"/>
<path d="M663.781 694.811H694.891L746.531 520.593H715.421L663.781 694.811Z" fill="#8A38F5" fill-opacity="0.49"/>
<path d="M457.949 694.298H485.579L537.219 520.08H509.589L457.949 694.298Z" fill="#8A38F5" fill-opacity="0.49"/>
<path d="M252.121 693.777H276.271L327.911 519.559H303.761L252.121 693.777Z" fill="#8A38F5" fill-opacity="0.49"/>
<path d="M46.2891 693.264H66.9591L118.599 519.047H97.9291L46.2891 693.264Z" fill="#8A38F5" fill-opacity="0.49"/>
<path d="M1286.63 522.316H1320.06L1371.7 348.099H1338.27L1286.63 522.316Z" fill="#8A38F5" fill-opacity="0.49"/>
<path d="M1080.04 521.971H1111.14L1162.78 347.754H1131.68L1080.04 521.971Z" fill="#8A38F5" fill-opacity="0.49"/>
<path d="M873.441 521.627H902.231L953.871 347.409H925.081L873.441 521.627Z" fill="#8A38F5" fill-opacity="0.49"/>
<path d="M666.84 521.282H693.31L744.95 347.065H718.48L666.84 521.282Z" fill="#8A38F5" fill-opacity="0.49"/>
<path d="M460.25 520.938H484.4L536.03 346.72H511.89L460.25 520.938Z" fill="#8A38F5" fill-opacity="0.49"/>
<path d="M253.652 520.593H275.482L327.122 346.376H305.292L253.652 520.593Z" fill="#8A38F5" fill-opacity="0.49"/>
<path d="M47.0625 520.249H66.5725L118.202 346.031H98.6925L47.0625 520.249Z" fill="#8A38F5" fill-opacity="0.49"/>
<path d="M1291.99 348.267H1317.3L1368.93 174.049H1343.63L1291.99 348.267Z" fill="#8A38F5" fill-opacity="0.49"/>
<path d="M1084.63 348.099H1108.78L1160.41 173.873H1136.27L1084.63 348.099Z" fill="#8A38F5" fill-opacity="0.49"/>
<path d="M877.27 347.922H900.25L951.89 173.705H928.899L877.27 347.922Z" fill="#8A38F5" fill-opacity="0.49"/>
<path d="M669.91 347.754H691.73L743.37 173.528H721.54L669.91 347.754Z" fill="#8A38F5" fill-opacity="0.49"/>
<path d="M462.539 347.578H483.209L534.849 173.36H514.179L462.539 347.578Z" fill="#8A38F5" fill-opacity="0.49"/>
<path d="M255.18 347.409H274.69L326.33 173.184H306.82L255.18 347.409Z" fill="#8A38F5" fill-opacity="0.49"/>
<path d="M47.8203 347.233H66.1703L117.81 173.016H99.4603L47.8203 347.233Z" fill="#8A38F5" fill-opacity="0.49"/>
<path d="M1348.98 0L1297.34 174.217H1314.54L1366.17 0H1348.98Z" fill="#8A38F5" fill-opacity="0.49"/>
<path d="M1140.86 0L1089.22 174.217H1106.41L1158.05 0H1140.86Z" fill="#8A38F5" fill-opacity="0.49"/>
<path d="M932.73 0L881.09 174.217H898.28L949.92 0H932.73Z" fill="#8A38F5" fill-opacity="0.49"/>
<path d="M724.603 0L672.973 174.217H690.163L741.803 0H724.603Z" fill="#8A38F5" fill-opacity="0.49"/>
<path d="M516.48 0L464.84 174.217H482.03L533.67 0H516.48Z" fill="#8A38F5" fill-opacity="0.49"/>
<path d="M308.351 0L256.711 174.217H273.901L325.541 0H308.351Z" fill="#8A38F5" fill-opacity="0.49"/>
<path d="M100.22 0L48.5898 174.217H65.7798L117.42 0H100.22Z" fill="#8A38F5" fill-opacity="0.49"/>
</svg>
