<svg width="595" height="602" viewBox="0 0 595 602" fill="none" xmlns="http://www.w3.org/2000/svg">
<g filter="url(#filter0_f_617_5010)">
<path d="M-97.0001 -251.465L-60.0079 -674L-76.64 -250.319L12.8294 -664.827L-56.5667 -246.305L84.233 -646.481L-37.067 -239.999L152.769 -619.248L-18.4276 -231.399L217.577 -583.989L-1.22186 -220.506L277.223 -540.704L14.55 -207.32L330.848 -490.252L28.6013 -192.414L377.876 -433.494L40.6453 -175.788L417.163 -371.289L50.3952 -158.015L448.706 -304.497L58.1378 -138.809L471.36 -234.553L63.0126 -119.029L485.125 -162.028L65.5936 -98.6763L490 -88.6433L65.5936 -78.3237L485.125 -14.9721L63.0126 -57.9709L471.36 57.2659L58.1378 -38.1914L448.706 127.497L50.3952 -19.272L417.163 194.002L40.6453 -1.21246L377.876 256.207L28.6013 15.4137L330.848 312.965L14.55 30.3199L277.223 363.417L-1.22186 43.2196L217.577 406.703L-18.4276 54.1126L152.769 442.248L-37.067 62.999L84.233 469.481L-56.5667 69.3055L12.8294 487.827L-76.64 73.032L-60.0079 497L-97.0001 74.4654L-133.992 497L-117.36 73.032L-206.83 487.827L-137.433 69.3055L-278.233 469.481L-156.933 62.999L-346.769 442.248L-175.573 54.1126L-411.577 406.703L-192.778 43.2196L-471.223 363.417L-208.55 30.3199L-524.848 312.965L-222.601 15.4137L-571.876 256.207L-234.645 -1.21246L-611.163 194.002L-244.395 -19.272L-642.706 127.497L-252.138 -38.1914L-665.361 57.2659L-257.013 -57.9709L-679.125 -14.9721L-259.594 -78.3237L-684 -88.6433L-259.594 -98.6763L-679.125 -162.028L-257.013 -119.029L-665.361 -234.553L-252.138 -138.809L-642.706 -304.497L-244.395 -158.015L-611.163 -371.289L-234.645 -175.788L-571.876 -433.494L-222.601 -192.414L-524.848 -490.252L-208.55 -207.32L-471.223 -540.704L-192.778 -220.506L-411.577 -583.989L-175.573 -231.399L-346.769 -619.248L-156.933 -239.999L-278.233 -646.481L-137.433 -246.305L-206.83 -664.827L-117.36 -250.319L-133.992 -674L-97.0001 -251.465Z" fill="#FDC500" fill-opacity="0.41"/>
</g>
<defs>
<filter id="filter0_f_617_5010" x="-788.5" y="-778.5" width="1383" height="1380" filterUnits="userSpaceOnUse" color-interpolation-filters="sRGB">
<feFlood flood-opacity="0" result="BackgroundImageFix"/>
<feBlend mode="normal" in="SourceGraphic" in2="BackgroundImageFix" result="shape"/>
<feGaussianBlur stdDeviation="52.25" result="effect1_foregroundBlur_617_5010"/>
</filter>
</defs>
</svg>
