<svg width="476" height="167" viewBox="0 0 476 167" fill="none" xmlns="http://www.w3.org/2000/svg">
<rect width="455.446" height="79.0586" transform="translate(18.4141 85.8518)" fill="white"/>
<g filter="url(#filter0_d_728_10663)">
<path d="M463.674 93.0369C463.09 88.9152 459.562 85.8518 455.399 85.8518H415.891C411.351 85.8518 407.642 89.4746 407.535 94.0125L406.062 156.345C405.951 161.037 409.724 164.901 414.417 164.901H426.046C429.318 164.901 431.584 161.633 430.436 158.569C429.222 155.325 431.823 151.929 435.271 152.258L445.873 153.267C448.99 153.563 451.68 155.578 452.842 158.485L453.303 159.639C454.572 162.814 457.646 164.896 461.064 164.896H464.234C469.317 164.896 473.223 160.397 472.51 155.364L463.674 93.0369ZM432.03 135.075C426.495 135.45 422.137 130.429 423.288 125.002L426.024 112.098C426.928 107.835 430.956 104.982 435.277 105.544L441.386 106.337C445.196 106.832 448.178 109.861 448.613 113.678L449.917 125.099C450.458 129.835 446.935 134.063 442.179 134.386L432.03 135.075Z" fill="#111111"/>
<path d="M455.398 85.1428C459.915 85.1428 463.743 88.4662 464.377 92.9377L473.212 155.265C473.986 160.724 469.748 165.605 464.234 165.605H461.064C457.356 165.605 454.021 163.346 452.645 159.903L452.184 158.748C451.12 156.088 448.658 154.245 445.806 153.973L435.203 152.964C432.277 152.686 430.07 155.567 431.101 158.32C432.422 161.848 429.813 165.61 426.046 165.61H414.417C409.325 165.609 405.232 161.418 405.353 156.328L406.825 93.9954C406.942 89.0725 410.966 85.1428 415.891 85.1428H455.398ZM435.186 106.247C431.231 105.734 427.545 108.344 426.718 112.245L423.981 125.149C422.928 130.115 426.917 134.711 431.982 134.367L442.131 133.678C446.483 133.383 449.708 129.513 449.213 125.179L447.908 113.758C447.509 110.265 444.781 107.494 441.295 107.041L435.186 106.247Z" stroke="#FFCC00" stroke-width="1.41884"/>
</g>
<g filter="url(#filter1_d_728_10663)">
<path d="M413.707 156.375C413.718 161.056 409.883 164.833 405.202 164.751L365.535 164.056C361.317 163.983 357.815 160.777 357.369 156.583L350.837 95.0929C350.313 90.1553 354.183 85.8518 359.149 85.8518H404.671C409.264 85.8518 412.996 89.5574 413.029 94.15L413.078 100.878C413.11 105.455 409.456 109.207 404.879 109.295L383.737 109.699C379.22 109.786 375.589 113.446 375.539 117.964L375.338 136.288C375.289 140.787 378.809 144.517 383.302 144.729L392.53 145.164C394.562 145.26 396.285 143.686 396.373 141.653C396.451 139.837 395.189 138.237 393.405 137.89L393.009 137.813C390.975 137.417 389.547 135.579 389.665 133.511L389.908 129.281C390.153 125.006 393.589 121.607 397.866 121.41L404.9 121.084C409.655 120.864 413.633 124.654 413.644 129.414L413.707 156.375Z" fill="#111111"/>
<path d="M404.671 85.1428C409.653 85.1428 413.702 89.1625 413.738 94.1448L413.787 100.873C413.823 105.839 409.857 109.909 404.893 110.004L383.751 110.408C379.617 110.488 376.294 113.838 376.249 117.972L376.048 136.296C376.003 140.413 379.224 143.826 383.336 144.02L392.563 144.455C394.203 144.533 395.593 143.262 395.664 141.622C395.727 140.157 394.709 138.866 393.27 138.586L392.873 138.509C390.491 138.045 388.818 135.893 388.957 133.47L389.199 129.24C389.465 124.603 393.193 120.915 397.833 120.7L404.867 120.375C410.026 120.137 414.341 124.248 414.354 129.412L414.416 156.373C414.428 161.452 410.267 165.549 405.189 165.46L365.522 164.766C360.947 164.686 357.148 161.208 356.664 156.657L350.132 95.1682C349.563 89.8115 353.762 85.1429 359.148 85.1428H404.671Z" stroke="#FFCC00" stroke-width="1.41884"/>
</g>
<g filter="url(#filter2_d_728_10663)">
<path d="M344.623 85.8518H308.467C307.361 85.8518 306.412 86.6237 306.181 87.7004L304.992 93.3191C303.125 102.144 290.387 101.713 289.12 92.7827C288.556 88.8068 285.152 85.8518 281.136 85.8518H250.574C249.083 85.9184 247.826 86.9847 247.517 88.4446L231.36 164.837C231.355 164.871 231.38 164.906 231.414 164.906H258.254C258.278 164.906 258.303 164.886 258.308 164.861L259.271 160.366C260.097 156.513 263.503 153.76 267.444 153.76H270.774C274.193 153.76 277.267 155.842 278.536 159.017L280.472 163.863C280.722 164.493 281.332 164.906 282.016 164.906H315.463C316.245 164.906 316.923 164.36 317.086 163.593L317.775 160.369C318.6 156.514 322.007 153.76 325.949 153.76H329.282C332.703 153.76 335.779 155.845 337.046 159.022L339.176 164.365C339.308 164.694 339.623 164.91 339.977 164.91H356.856C357.382 164.91 357.785 164.443 357.711 163.927L346.934 87.8676C346.772 86.7073 345.784 85.8518 344.623 85.8518ZM255.37 133.105C255.369 133.105 255.368 133.104 255.368 133.103L261.272 107.613C261.331 107.357 261.558 107.18 261.818 107.18H272.861C273.146 107.18 273.387 107.391 273.416 107.677L276.327 133.169C276.366 133.503 276.106 133.793 275.771 133.793H255.918C255.56 133.793 255.29 133.461 255.372 133.107C255.372 133.106 255.371 133.105 255.37 133.105ZM313.87 133.105L319.78 107.613C319.839 107.357 320.065 107.18 320.326 107.18H331.368C331.653 107.18 331.894 107.391 331.924 107.677L334.825 133.169C334.864 133.503 334.603 133.793 334.269 133.793H314.416C314.057 133.793 313.787 133.459 313.87 133.105Z" fill="#111111"/>
<path d="M281.137 85.1428C285.506 85.143 289.209 88.3573 289.822 92.6829C290.978 100.828 302.595 101.22 304.298 93.1721L305.486 87.554L305.487 87.552C305.788 86.1496 307.025 85.1428 308.467 85.1428H344.623C346.137 85.1428 347.425 86.2582 347.637 87.7678L358.414 163.827H358.413C358.548 164.771 357.813 165.619 356.855 165.619H339.978C339.328 165.619 338.756 165.222 338.518 164.63L338.517 164.627L336.387 159.285C335.227 156.377 332.413 154.469 329.282 154.469H325.948C322.341 154.469 319.224 156.99 318.469 160.517L317.779 163.741L317.778 163.74C317.546 164.837 316.577 165.615 315.463 165.615H282.016C281.104 165.615 280.281 165.098 279.886 164.291L279.812 164.126L277.877 159.281C276.716 156.375 273.902 154.469 270.773 154.469H267.444C263.838 154.469 260.721 156.988 259.965 160.515L259.003 164.999L259.004 165C258.932 165.361 258.611 165.614 258.254 165.615H231.414C230.859 165.614 230.605 165.105 230.657 164.737L230.661 164.713L230.666 164.69L246.823 88.2981C247.199 86.5219 248.728 85.224 250.542 85.1428H281.137ZM314.604 133.084H334.102L331.233 107.889H320.443L314.604 133.084ZM256.101 133.084H275.604L272.727 107.889H261.937L256.101 133.084Z" stroke="#FFCC00" stroke-width="1.41884"/>
</g>
<g filter="url(#filter3_d_728_10663)">
<path d="M200.595 128.528C200.816 124.681 203.91 121.622 207.759 121.444L221.807 120.795C227.156 120.547 231.355 125.324 230.424 130.597L225.587 157.995C224.882 161.989 221.412 164.901 217.356 164.901H177.988C173.265 164.901 169.48 160.99 169.634 156.269L171.586 96.6356C171.729 92.2747 175.202 88.7573 179.561 88.5595L227.371 86.3898C233.147 86.1277 237.438 91.6685 235.739 97.1952L233.936 103.06C232.812 106.72 229.344 109.147 225.52 108.952L199.46 107.618C194.766 107.378 190.797 111.054 190.678 115.753L190.062 139.928C189.942 144.62 193.709 148.491 198.403 148.499L207.542 148.515C210.499 148.52 213.014 146.361 213.458 143.437C214.034 139.638 210.876 136.295 207.045 136.589C203.394 136.869 200.287 133.869 200.498 130.213L200.595 128.528Z" fill="#111111"/>
<path d="M227.339 85.6809C233.605 85.3965 238.26 91.4078 236.417 97.4036L234.614 103.269C233.394 107.239 229.632 109.873 225.483 109.66L199.424 108.326C195.128 108.107 191.496 111.471 191.387 115.771L190.771 139.946C190.662 144.24 194.109 147.782 198.404 147.789L207.543 147.805C210.149 147.809 212.366 145.907 212.757 143.33C213.263 139.991 210.484 137.037 207.1 137.296C203.027 137.608 199.554 134.264 199.79 130.172L199.887 128.488C200.129 124.277 203.514 120.93 207.727 120.736L221.774 120.086C227.577 119.818 232.132 124.999 231.122 130.72L226.286 158.118C225.521 162.451 221.756 165.61 217.356 165.61H177.988C172.864 165.61 168.757 161.367 168.925 156.245L170.877 96.6125C171.032 91.8815 174.801 88.0654 179.529 87.8508L227.339 85.6809Z" stroke="#FFCC00" stroke-width="1.41884"/>
</g>
<g filter="url(#filter4_d_728_10663)">
<path d="M50.5207 129.161C50.1423 124.194 54.1655 120.001 59.1442 120.173L79.7163 120.886C84.3537 121.047 87.9725 124.954 87.7777 129.59L86.7245 154.658C86.5416 159.012 83.0435 162.495 78.6883 162.659L29.6185 164.507C25.0035 164.681 21.1222 161.079 20.9514 156.464L18.7349 96.5792C18.5596 91.8451 22.35 87.9119 27.0873 87.9119H80.8842C85.5003 87.9119 89.2423 91.654 89.2423 96.2701V100.281C89.2423 104.896 85.5029 108.637 80.8885 108.64L50.3641 108.656C45.8325 108.658 42.1283 112.271 42.013 116.801L41.4502 138.917C41.3182 144.103 45.893 148.156 51.025 147.399L60.6817 145.975C62.6159 145.69 64.137 144.175 64.4303 142.242C64.8594 139.414 62.5461 136.922 59.694 137.14L57.4218 137.314C53.9738 137.577 50.9652 134.995 50.7025 131.547L50.5207 129.161Z" fill="#111111"/>
<path d="M80.8838 87.2029C85.8917 87.2029 89.9521 91.2624 89.9521 96.2703V100.281C89.9521 105.287 85.8947 109.347 80.8887 109.349L50.3643 109.365C46.2174 109.367 42.8282 112.674 42.7227 116.819L42.1592 138.935C42.0384 143.681 46.2254 147.39 50.9219 146.697L60.5781 145.273C62.2038 145.033 63.482 143.76 63.7285 142.135C64.0892 139.759 62.1452 137.664 59.748 137.847L57.4756 138.021C53.6369 138.314 50.2876 135.439 49.9951 131.6L49.8135 129.216C49.4029 123.827 53.7678 119.277 59.1689 119.465L79.7412 120.177C84.772 120.351 88.6976 124.59 88.4863 129.62L87.4336 154.687C87.2351 159.411 83.4397 163.19 78.7148 163.368L29.6455 165.217C24.6389 165.405 20.4275 161.497 20.2422 156.49L18.0264 96.6052C17.8364 91.4696 21.9478 87.2031 27.0869 87.2029H80.8838Z" stroke="#FFCC00" stroke-width="1.41884"/>
</g>
<g filter="url(#filter5_d_728_10663)">
<path d="M89.5693 86.9841C85.018 87.0733 81.375 90.7884 81.375 95.3406V153.445C81.375 158.061 85.1171 161.803 89.7332 161.803H129.704C134.094 161.803 137.735 158.407 138.042 154.028L142.165 95.059C142.508 90.1602 138.573 86.0231 133.663 86.1194L89.5693 86.9841ZM124.48 139.203C124.326 143.705 120.631 147.275 116.127 147.275H105.175C100.321 147.275 96.4877 143.153 96.839 138.312L98.7302 112.246C99.0234 108.205 102.172 104.957 106.201 104.537L116.19 103.498C121.236 102.973 125.582 107.027 125.409 112.097L124.48 139.203Z" fill="#111111"/>
<path d="M133.649 85.4099C138.976 85.3055 143.244 89.7937 142.873 95.1082L138.749 154.078C138.417 158.828 134.466 162.512 129.704 162.512H89.7334C84.7256 162.512 80.6661 158.453 80.666 153.445V95.3406C80.6661 90.402 84.618 86.372 89.5557 86.2751L133.649 85.4099ZM124.699 112.073C124.858 107.433 120.881 103.723 116.264 104.204L106.274 105.243C102.587 105.627 99.7058 108.6 99.4375 112.298L97.5469 138.363C97.2255 142.793 100.733 146.565 105.175 146.565H116.127C120.249 146.565 123.629 143.298 123.771 139.178L124.699 112.073Z" stroke="#FFCC00" stroke-width="1.41884"/>
</g>
<rect width="455.446" height="79.0586" transform="translate(19.832 57.8713)" fill="white"/>
<g filter="url(#filter6_d_728_10663)">
<path d="M465.092 65.0564C464.508 60.9348 460.98 57.8713 456.817 57.8713H417.309C412.769 57.8713 409.06 61.4941 408.953 66.032L407.48 128.364C407.369 133.057 411.142 136.92 415.835 136.92H427.464C430.736 136.92 433.002 133.653 431.854 130.588C430.64 127.344 433.241 123.949 436.689 124.277L447.291 125.286C450.408 125.583 453.098 127.597 454.26 130.505L454.721 131.659C455.99 134.833 459.064 136.915 462.482 136.915H465.652C470.735 136.915 474.641 132.416 473.927 127.384L465.092 65.0564ZM433.448 107.094C427.913 107.47 423.555 102.448 424.706 97.0214L427.442 84.1178C428.346 79.8548 432.374 77.0018 436.695 77.5633L442.804 78.3569C446.614 78.8519 449.596 81.8803 450.031 85.6973L451.335 97.1184C451.876 101.854 448.353 106.083 443.597 106.406L433.448 107.094Z" fill="white"/>
<path d="M456.816 57.1624C461.333 57.1624 465.161 60.4858 465.795 64.9573L474.63 127.284C475.404 132.744 471.166 137.624 465.652 137.624H462.482C458.774 137.624 455.439 135.366 454.062 131.922L453.602 130.768C452.538 128.107 450.076 126.264 447.224 125.992L436.621 124.984C433.695 124.705 431.488 127.586 432.519 130.339C433.84 133.867 431.231 137.629 427.464 137.629H415.835C410.743 137.629 406.65 133.438 406.771 128.348L408.243 66.0149C408.36 61.092 412.384 57.1624 417.309 57.1624H456.816ZM436.604 78.2668C432.649 77.7533 428.963 80.3639 428.136 84.2649L425.399 97.1682C424.346 102.134 428.335 106.731 433.4 106.387L443.549 105.698C447.901 105.402 451.126 101.532 450.631 97.1985L449.326 85.7776C448.927 82.2847 446.199 79.5139 442.713 79.0608L436.604 78.2668Z" stroke="#8A38F5" stroke-width="1.41884"/>
</g>
<g filter="url(#filter7_d_728_10663)">
<path d="M415.125 128.394C415.136 133.075 411.301 136.853 406.62 136.771L366.953 136.076C362.735 136.002 359.233 132.797 358.787 128.602L352.255 67.1125C351.731 62.1748 355.601 57.8713 360.567 57.8713H406.089C410.682 57.8713 414.414 61.577 414.447 66.1695L414.495 72.8976C414.528 77.4746 410.874 81.2267 406.297 81.3143L385.155 81.7189C380.638 81.8054 377.007 85.466 376.957 89.9838L376.756 108.308C376.707 112.806 380.227 116.537 384.72 116.748L393.948 117.183C395.98 117.279 397.703 115.705 397.791 113.673C397.869 111.857 396.607 110.256 394.823 109.909L394.427 109.832C392.393 109.437 390.965 107.599 391.083 105.53L391.326 101.3C391.571 97.0253 395.007 93.6269 399.284 93.4291L406.318 93.1038C411.073 92.8839 415.051 96.6736 415.062 101.434L415.125 128.394Z" fill="white"/>
<path d="M406.089 57.1624C411.071 57.1624 415.12 61.182 415.156 66.1643L415.205 72.8928C415.241 77.8582 411.275 81.9287 406.311 82.0237L385.169 82.428C381.035 82.5071 377.712 85.8571 377.667 89.9915L377.466 108.316C377.421 112.432 380.642 115.845 384.754 116.039L393.981 116.475C395.621 116.552 397.011 115.282 397.082 113.642C397.145 112.177 396.127 110.886 394.688 110.606L394.291 110.529C391.909 110.065 390.236 107.912 390.375 105.49L390.617 101.26C390.883 96.6223 394.611 92.9347 399.251 92.72L406.285 92.3948C411.443 92.1564 415.759 96.268 415.771 101.432L415.834 128.393C415.846 133.471 411.685 137.569 406.607 137.48L366.94 136.785C362.365 136.705 358.565 133.228 358.082 128.677L351.55 67.1877C350.981 61.831 355.18 57.1625 360.566 57.1624H406.089Z" stroke="#8A38F5" stroke-width="1.41884"/>
</g>
<g filter="url(#filter8_d_728_10663)">
<path d="M346.041 57.8713H309.885C308.779 57.8713 307.83 58.6432 307.599 59.72L306.41 65.3387C304.543 74.1631 291.805 73.7326 290.538 64.8022C289.974 60.8263 286.57 57.8713 282.554 57.8713H251.992C250.501 57.9379 249.244 59.0042 248.935 60.4641L232.778 136.856C232.773 136.891 232.798 136.925 232.832 136.925H259.672C259.696 136.925 259.721 136.905 259.726 136.881L260.689 132.386C261.515 128.532 264.921 125.779 268.862 125.779H272.192C275.611 125.779 278.685 127.861 279.954 131.036L281.89 135.883C282.14 136.512 282.75 136.925 283.434 136.925H316.881C317.663 136.925 318.341 136.379 318.503 135.612L319.193 132.388C320.018 128.534 323.425 125.779 327.367 125.779H330.7C334.121 125.779 337.197 127.864 338.464 131.042L340.594 136.384C340.726 136.714 341.041 136.93 341.395 136.93H358.274C358.8 136.93 359.203 136.463 359.129 135.947L348.352 59.8871C348.19 58.7268 347.202 57.8713 346.041 57.8713ZM256.788 105.125C256.787 105.125 256.786 105.123 256.786 105.122L262.69 79.6321C262.749 79.3765 262.976 79.1995 263.236 79.1995H274.279C274.564 79.1995 274.805 79.4109 274.834 79.696L277.745 105.189C277.784 105.523 277.524 105.813 277.189 105.813H257.336C256.978 105.813 256.708 105.48 256.79 105.127C256.79 105.126 256.789 105.125 256.788 105.125ZM315.288 105.125L321.198 79.6321C321.257 79.3765 321.483 79.1995 321.744 79.1995H332.786C333.071 79.1995 333.312 79.4109 333.342 79.696L336.243 105.189C336.282 105.523 336.021 105.813 335.687 105.813H315.834C315.475 105.813 315.204 105.479 315.288 105.125Z" fill="white"/>
<path d="M282.555 57.1624C286.924 57.1625 290.627 60.3768 291.24 64.7024C292.396 72.8471 304.013 73.2397 305.716 65.1917L306.904 59.5735L306.905 59.5715C307.206 58.1692 308.443 57.1624 309.885 57.1624H346.041C347.555 57.1624 348.843 58.2777 349.055 59.7874L359.832 135.847H359.831C359.966 136.791 359.231 137.639 358.273 137.639H341.396C340.746 137.639 340.174 137.242 339.936 136.65L339.935 136.647L337.805 131.305C336.645 128.397 333.831 126.489 330.7 126.489H327.366C323.759 126.489 320.642 129.009 319.887 132.536L319.197 135.761L319.196 135.76C318.964 136.856 317.995 137.634 316.881 137.634H283.434C282.522 137.634 281.699 137.118 281.304 136.311L281.23 136.146L279.295 131.3C278.134 128.395 275.32 126.489 272.191 126.489H268.862C265.256 126.489 262.139 129.008 261.383 132.534L260.421 137.019L260.422 137.02C260.35 137.381 260.029 137.634 259.672 137.634H232.832C232.277 137.634 232.023 137.125 232.075 136.756L232.079 136.733L232.084 136.709L248.241 60.3176C248.617 58.5414 250.146 57.2435 251.96 57.1624H282.555ZM316.021 105.104H335.52L332.651 79.9084H321.861L316.021 105.104ZM257.519 105.104H277.021L274.145 79.9084H263.354L257.519 105.104Z" stroke="#8A38F5" stroke-width="1.41884"/>
</g>
<g filter="url(#filter9_d_728_10663)">
<path d="M202.013 100.548C202.234 96.7001 205.327 93.6419 209.177 93.4638L223.225 92.8142C228.574 92.5668 232.773 97.3431 231.842 102.616L227.005 130.015C226.3 134.009 222.83 136.92 218.774 136.92H179.406C174.683 136.92 170.898 133.009 171.052 128.288L173.004 68.6551C173.147 64.2942 176.62 60.7768 180.979 60.579L228.789 58.4093C234.565 58.1472 238.856 63.688 237.157 69.2147L235.354 75.0795C234.23 78.7393 230.762 81.1667 226.938 80.971L200.878 79.6377C196.184 79.3975 192.215 83.0736 192.096 87.7721L191.48 111.947C191.36 116.64 195.127 120.51 199.821 120.518L208.96 120.534C211.917 120.539 214.432 118.38 214.876 115.456C215.452 111.658 212.294 108.315 208.463 108.609C204.812 108.889 201.705 105.889 201.916 102.233L202.013 100.548Z" fill="white"/>
<path d="M228.757 57.7004C235.023 57.4161 239.678 63.4273 237.835 69.4231L236.032 75.2883C234.812 79.2584 231.049 81.8922 226.901 81.6799L200.842 80.3459C196.546 80.1263 192.914 83.4906 192.805 87.7903L192.189 111.965C192.08 116.259 195.527 119.801 199.822 119.809L208.961 119.824C211.567 119.829 213.784 117.926 214.175 115.35C214.681 112.011 211.902 109.056 208.518 109.316C204.445 109.628 200.972 106.284 201.208 102.192L201.305 100.507C201.547 96.2967 204.932 92.95 209.145 92.7551L223.192 92.1057C228.995 91.8375 233.55 97.0187 232.54 102.74L227.704 130.138C226.939 134.471 223.174 137.629 218.774 137.629H179.406C174.282 137.629 170.175 133.386 170.343 128.265L172.295 68.6321C172.45 63.901 176.219 60.085 180.947 59.8704L228.757 57.7004Z" stroke="#8A38F5" stroke-width="1.41884"/>
</g>
<g filter="url(#filter10_d_728_10663)">
<path d="M51.9387 101.181C51.5603 96.2137 55.5835 92.0204 60.5621 92.1928L81.1343 92.9055C85.7716 93.0661 89.3905 96.9735 89.1957 101.61L88.1425 126.677C87.9596 131.032 84.4614 134.515 80.1063 134.679L31.0364 136.527C26.4215 136.701 22.5402 133.099 22.3694 128.484L20.1528 68.5987C19.9776 63.8646 23.768 59.9314 28.5053 59.9314H82.3021C86.9182 59.9314 90.6603 63.6735 90.6603 68.2896V72.301C90.6603 76.9154 86.9209 80.6567 82.3065 80.6592L51.7821 80.6751C47.2505 80.6775 43.5462 84.2906 43.431 88.8207L42.8682 110.937C42.7362 116.123 47.3109 120.175 52.443 119.418L62.0997 117.994C64.0338 117.709 65.555 116.194 65.8483 114.261C66.2774 111.433 63.964 108.941 61.112 109.159L58.8398 109.333C55.3917 109.597 52.3831 107.014 52.1205 103.566L51.9387 101.181Z" fill="white"/>
<path d="M82.3018 59.2224C87.3097 59.2224 91.3701 63.2819 91.3701 68.2898V72.3005C91.3701 77.3066 87.3127 81.3663 82.3066 81.3689L51.7822 81.3845C47.6354 81.3868 44.2462 84.6931 44.1406 88.8386L43.5771 110.955C43.4564 115.701 47.6434 119.409 52.3398 118.717L61.9961 117.293C63.6217 117.053 64.9 115.78 65.1465 114.155C65.5072 111.778 63.5632 109.684 61.166 109.867L58.8936 110.041C55.0549 110.334 51.7055 107.459 51.4131 103.62L51.2314 101.235C50.8209 95.8463 55.1857 91.297 60.5869 91.4841L81.1592 92.196C86.19 92.3705 90.1156 96.61 89.9043 101.639L88.8516 126.707C88.6531 131.431 84.8576 135.21 80.1328 135.387L31.0635 137.236C26.0568 137.425 21.8455 133.516 21.6602 128.51L19.4443 68.6248C19.2544 63.4891 23.3657 59.2226 28.5049 59.2224H82.3018Z" stroke="#8A38F5" stroke-width="1.41884"/>
</g>
<g filter="url(#filter11_d_728_10663)">
<path d="M90.9873 59.0036C86.4359 59.0928 82.793 62.8079 82.793 67.3602V125.464C82.793 130.08 86.5351 133.823 91.1512 133.823H131.122C135.511 133.823 139.153 130.427 139.459 126.047L143.583 67.0786C143.926 62.1798 139.991 58.0427 135.081 58.1389L90.9873 59.0036ZM125.898 111.222C125.744 115.724 122.049 119.294 117.545 119.294H106.593C101.739 119.294 97.9057 115.173 98.257 110.331L100.148 84.2655C100.441 80.225 103.59 76.9764 107.619 76.557L117.608 75.5174C122.654 74.9922 127 79.0467 126.827 84.1169L125.898 111.222Z" fill="white"/>
<path d="M135.067 57.4294C140.394 57.325 144.662 61.8133 144.291 67.1277L140.167 126.097C139.835 130.848 135.884 134.532 131.122 134.532H91.1514C86.1435 134.532 82.0841 130.472 82.084 125.465V67.3601C82.084 62.4215 86.036 58.3915 90.9736 58.2947L135.067 57.4294ZM126.117 84.0925C126.276 79.4528 122.299 75.7428 117.682 76.2234L107.692 77.2625C104.005 77.6464 101.124 80.6197 100.855 84.3171L98.9648 110.383C98.6435 114.813 102.151 118.584 106.593 118.585H117.545C121.667 118.585 125.047 115.318 125.188 111.198L126.117 84.0925Z" stroke="#8A38F5" stroke-width="1.41884"/>
</g>
<rect width="455.446" height="79.0586" transform="translate(14.1562 29.8909)" fill="white"/>
<g filter="url(#filter12_d_728_10663)">
<path d="M459.416 37.076C458.832 32.9543 455.304 29.8909 451.141 29.8909H411.633C407.094 29.8909 403.384 33.5137 403.277 38.0516L401.804 100.384C401.693 105.076 405.466 108.94 410.16 108.94H421.788C425.06 108.94 427.326 105.672 426.178 102.608C424.964 99.3639 427.565 95.9684 431.013 96.2966L441.615 97.3057C444.732 97.6024 447.422 99.6167 448.584 102.524L449.045 103.678C450.314 106.853 453.388 108.935 456.807 108.935H459.976C465.059 108.935 468.965 104.436 468.252 99.4035L459.416 37.076ZM427.772 79.1139C422.237 79.4895 417.879 74.4678 419.03 69.0409L421.766 56.1374C422.67 51.8744 426.698 49.0214 431.02 49.5828L437.128 50.3764C440.938 50.8714 443.92 53.8998 444.356 57.7169L445.66 69.138C446.2 73.8739 442.677 78.1023 437.921 78.425L427.772 79.1139Z" fill="#8A38F5"/>
<path d="M451.141 29.1819C455.657 29.1819 459.485 32.5053 460.119 36.9768L468.954 99.304C469.728 104.763 465.491 109.644 459.977 109.644H456.807C453.098 109.644 449.763 107.386 448.387 103.942L447.926 102.787C446.862 100.127 444.4 98.2836 441.548 98.012L430.945 97.0032C428.019 96.7249 425.812 99.606 426.843 102.359C428.164 105.887 425.555 109.649 421.788 109.649H410.159C405.068 109.648 400.975 105.458 401.095 100.367L402.567 38.0344C402.684 33.1116 406.709 29.1819 411.633 29.1819H451.141ZM430.928 50.2864C426.973 49.7728 423.287 52.3834 422.46 56.2844L419.724 69.1877C418.67 74.154 422.66 78.7503 427.725 78.4065L437.873 77.717C442.225 77.4217 445.45 73.552 444.955 69.218L443.65 57.7971C443.251 54.3043 440.523 51.5334 437.037 51.0803L430.928 50.2864Z" stroke="#111111" stroke-width="1.41884"/>
</g>
<g filter="url(#filter13_d_728_10663)">
<path d="M409.449 100.414C409.46 105.095 405.625 108.872 400.945 108.79L361.277 108.096C357.059 108.022 353.557 104.816 353.112 100.622L346.579 39.132C346.055 34.1943 349.925 29.8909 354.891 29.8909H400.413C405.006 29.8909 408.738 33.5965 408.771 38.1891L408.82 44.9172C408.853 49.4942 405.198 53.2463 400.622 53.3338L379.479 53.7384C374.962 53.8249 371.331 57.4855 371.281 62.0034L371.08 80.3273C371.031 84.8256 374.551 88.5561 379.044 88.768L388.272 89.203C390.304 89.2987 392.027 87.7247 392.115 85.6922C392.193 83.8761 390.931 82.2759 389.147 81.9287L388.751 81.8518C386.717 81.4561 385.289 79.6184 385.408 77.55L385.65 73.3199C385.895 69.0449 389.331 65.6464 393.608 65.4486L400.642 65.1233C405.397 64.9035 409.375 68.6931 409.386 73.4531L409.449 100.414Z" fill="#8A38F5"/>
<path d="M400.413 29.1819C405.396 29.1819 409.445 33.2015 409.48 38.1838L409.529 44.9124C409.565 49.8777 405.599 53.9482 400.635 54.0432L379.493 54.4475C375.359 54.5266 372.037 57.8767 371.991 62.011L371.79 80.3352C371.745 84.4517 374.966 87.865 379.078 88.0588L388.306 88.4944C389.945 88.5717 391.336 87.3012 391.406 85.6614C391.469 84.1963 390.451 82.9055 389.012 82.6252L388.615 82.5481C386.233 82.0845 384.56 79.9317 384.699 77.509L384.941 73.2795C385.207 68.6418 388.935 64.9542 393.575 64.7395L400.609 64.4143C405.768 64.176 410.084 68.2876 410.096 73.4514L410.158 100.412C410.17 105.491 406.009 109.588 400.932 109.499L361.265 108.805C356.689 108.725 352.89 105.247 352.406 100.697L345.874 39.2073C345.305 33.8506 349.504 29.182 354.891 29.1819H400.413Z" stroke="#111111" stroke-width="1.41884"/>
</g>
<g filter="url(#filter14_d_728_10663)">
<path d="M340.366 29.8909H304.209C303.103 29.8909 302.154 30.6628 301.923 31.7395L300.734 37.3582C298.867 46.1827 286.129 45.7521 284.862 36.8218C284.298 32.8458 280.894 29.8909 276.879 29.8909H246.316C244.825 29.9574 243.568 31.0238 243.26 32.4837L227.102 108.876C227.097 108.91 227.122 108.945 227.156 108.945H253.996C254.02 108.945 254.045 108.925 254.05 108.9L255.014 104.405C255.84 100.552 259.245 97.7987 263.186 97.7987H266.516C269.935 97.7987 273.009 99.881 274.278 103.056L276.214 107.902C276.465 108.532 277.074 108.945 277.758 108.945H311.205C311.987 108.945 312.665 108.399 312.828 107.632L313.518 104.408C314.343 100.553 317.749 97.7987 321.691 97.7987H325.024C328.445 97.7987 331.521 99.8836 332.788 103.061L334.918 108.404C335.051 108.733 335.365 108.95 335.719 108.95H352.598C353.124 108.95 353.527 108.482 353.453 107.966L342.676 31.9067C342.514 30.7464 341.526 29.8909 340.366 29.8909ZM251.112 77.1441C251.111 77.1441 251.11 77.143 251.11 77.1418L257.015 51.6517C257.074 51.396 257.3 51.219 257.56 51.219H268.603C268.888 51.219 269.129 51.4304 269.159 51.7156L272.069 77.2081C272.109 77.5424 271.848 77.8325 271.514 77.8325H251.661C251.302 77.8325 251.032 77.4997 251.114 77.1466C251.114 77.1453 251.114 77.1441 251.112 77.1441ZM309.612 77.1441L315.522 51.6517C315.581 51.396 315.807 51.219 316.068 51.219H327.11C327.396 51.219 327.636 51.4304 327.666 51.7156L330.567 77.2081C330.606 77.5424 330.346 77.8325 330.011 77.8325H310.158C309.799 77.8325 309.529 77.4981 309.612 77.1441Z" fill="#8A38F5"/>
<path d="M276.879 29.1819C281.248 29.182 284.951 32.3964 285.564 36.7219C286.72 44.8666 298.337 45.2593 300.04 37.2112L301.229 31.593L301.229 31.5911C301.53 30.1887 302.767 29.1819 304.209 29.1819H340.365C341.879 29.1819 343.167 30.2972 343.379 31.8069L354.156 107.866H354.155C354.29 108.81 353.555 109.658 352.598 109.658H335.72C335.07 109.658 334.498 109.261 334.26 108.669L334.259 108.666L332.129 103.324C330.969 100.416 328.155 98.5082 325.024 98.5081H321.69C318.083 98.5082 314.966 101.029 314.211 104.556L313.521 107.781L313.521 107.78C313.288 108.876 312.32 109.654 311.205 109.654H277.758C276.847 109.654 276.023 109.137 275.628 108.33L275.555 108.165L273.619 103.32C272.458 100.414 269.644 98.5081 266.516 98.5081H263.187C259.58 98.5081 256.463 101.028 255.707 104.554L254.745 109.038L254.746 109.039C254.674 109.401 254.354 109.653 253.996 109.654H227.156C226.601 109.654 226.347 109.145 226.399 108.776L226.403 108.752L226.408 108.729L242.565 32.3372C242.941 30.561 244.471 29.263 246.284 29.1819H276.879ZM310.346 77.1233H329.844L326.976 51.928H316.186L310.346 77.1233ZM251.843 77.1233H271.346L268.469 51.928H257.679L251.843 77.1233Z" stroke="#111111" stroke-width="1.41884"/>
</g>
<g filter="url(#filter15_d_728_10663)">
<path d="M196.337 72.5673C196.559 68.7196 199.652 65.6614 203.502 65.4834L217.549 64.8337C222.898 64.5863 227.097 69.3626 226.166 74.636L221.329 102.035C220.624 106.028 217.154 108.94 213.098 108.94H173.73C169.007 108.94 165.222 105.029 165.376 100.308L167.329 40.6747C167.471 36.3137 170.945 32.7964 175.303 32.5986L223.113 30.4289C228.889 30.1667 233.18 35.7076 231.481 41.2343L229.679 47.0991C228.554 50.7588 225.086 53.1862 221.262 52.9906L195.202 51.6572C190.508 51.417 186.54 55.0931 186.42 59.7916L185.804 83.9669C185.684 88.6592 189.451 92.5299 194.145 92.5379L203.284 92.5537C206.241 92.5588 208.757 90.3996 209.2 87.476C209.776 83.6773 206.619 80.3343 202.788 80.6282C199.136 80.9083 196.029 77.9085 196.24 74.2522L196.337 72.5673Z" fill="#8A38F5"/>
<path d="M223.081 29.72C229.347 29.4356 234.002 35.4469 232.159 41.4426L230.356 47.3079C229.136 51.278 225.374 53.9117 221.226 53.6995L195.166 52.3655C190.871 52.1458 187.238 55.5101 187.129 59.8098L186.514 83.9846C186.404 88.2786 189.851 91.821 194.146 91.8284L203.285 91.844C205.891 91.8484 208.108 89.9457 208.499 87.3694C209.005 84.0303 206.226 81.0756 202.842 81.3352C198.769 81.6476 195.297 78.3035 195.532 74.2112L195.629 72.5266C195.871 68.3162 199.256 64.9695 203.469 64.7747L217.517 64.1252C223.32 63.857 227.874 69.0382 226.864 74.759L222.028 102.157C221.263 106.49 217.498 109.649 213.099 109.649H173.73C168.606 109.649 164.499 105.406 164.667 100.284L166.619 40.6516C166.774 35.9205 170.543 32.1045 175.271 31.8899L223.081 29.72Z" stroke="#111111" stroke-width="1.41884"/>
</g>
<g filter="url(#filter16_d_728_10663)">
<path d="M46.2629 73.2005C45.8845 68.2332 49.9077 64.0399 54.8863 64.2124L75.4585 64.925C80.0958 65.0857 83.7147 68.993 83.5199 73.6291L82.4667 98.6967C82.2838 103.051 78.7856 106.534 74.4305 106.698L25.3606 108.546C20.7457 108.72 16.8644 105.118 16.6936 100.503L14.4771 40.6183C14.3018 35.8842 18.0922 31.9509 22.8295 31.9509H76.6264C81.2425 31.9509 84.9845 35.693 84.9845 40.3091V44.3205C84.9845 48.9349 81.2451 52.6763 76.6307 52.6787L46.1063 52.6947C41.5747 52.697 37.8704 56.3101 37.7552 60.8402L37.1924 82.9565C37.0604 88.1424 41.6351 92.1947 46.7672 91.4379L56.4239 90.0139C58.3581 89.7287 59.8792 88.2139 60.1725 86.281C60.6016 83.453 58.2882 80.961 55.4362 81.1789L53.164 81.3526C49.716 81.616 46.7074 79.034 46.4447 75.5859L46.2629 73.2005Z" fill="#8A38F5"/>
<path d="M76.626 31.2419C81.6339 31.2419 85.6943 35.3014 85.6943 40.3093V44.3201C85.6943 49.3261 81.6369 53.3858 76.6309 53.3884L46.1064 53.4041C41.9596 53.4063 38.5704 56.7127 38.4648 60.8582L37.9014 82.9744C37.7806 87.7201 41.9676 91.4286 46.6641 90.7361L56.3203 89.3123C57.9459 89.0725 59.2242 87.7992 59.4707 86.1746C59.8314 83.7976 57.8874 81.7033 55.4902 81.8865L53.2178 82.0603C49.3791 82.3534 46.0298 79.4781 45.7373 75.6394L45.5557 73.2546C45.1451 67.8658 49.5099 63.3166 54.9111 63.5037L75.4834 64.2156C80.5142 64.39 84.4398 68.6295 84.2285 73.6589L83.1758 98.7263C82.9773 103.45 79.1819 107.229 74.457 107.407L25.3877 109.256C20.381 109.444 16.1697 105.536 15.9844 100.529L13.7686 40.6443C13.5786 35.5086 17.6899 31.2422 22.8291 31.2419H76.626Z" stroke="#111111" stroke-width="1.41884"/>
</g>
<g filter="url(#filter17_d_728_10663)">
<path d="M85.3115 31.0231C80.7602 31.1124 77.1172 34.8275 77.1172 39.3797V97.4839C77.1172 102.1 80.8593 105.842 85.4754 105.842H125.446C129.836 105.842 133.477 102.446 133.784 98.067L137.907 39.0981C138.25 34.1993 134.315 30.0622 129.406 30.1585L85.3115 31.0231ZM120.222 83.2416C120.068 87.7437 116.374 91.3136 111.869 91.3136H100.917C96.0631 91.3136 92.2299 87.1922 92.5812 82.3506L94.4724 56.285C94.7656 52.2445 97.9141 48.9959 101.943 48.5766L111.932 47.5369C116.978 47.0117 121.325 51.0663 121.151 56.1364L120.222 83.2416Z" fill="#8A38F5"/>
<path d="M129.392 29.449C134.718 29.3445 138.987 33.8328 138.615 39.1472L134.491 98.1169C134.159 102.867 130.208 106.551 125.446 106.552H85.4756C80.4678 106.552 76.4083 102.492 76.4082 97.4841V39.3796C76.4082 34.4411 80.3602 30.411 85.2979 30.3142L129.392 29.449ZM120.441 56.1121C120.6 51.4723 116.623 47.7624 112.006 48.2429L102.017 49.282C98.3294 49.6659 95.448 52.6392 95.1797 56.3367L93.2891 82.4021C92.9677 86.8325 96.475 90.604 100.917 90.6042H111.869C115.991 90.6041 119.371 87.3373 119.513 83.2175L120.441 56.1121Z" stroke="#111111" stroke-width="1.41884"/>
</g>
<rect width="455.446" height="79.0586" transform="translate(8.48047 1.9104)" fill="white"/>
<g filter="url(#filter18_d_728_10663)">
<path d="M453.741 9.0955C453.156 4.97382 449.628 1.9104 445.465 1.9104H405.957C401.418 1.9104 397.708 5.53321 397.601 10.0711L396.128 72.4035C396.017 77.0956 399.79 80.9592 404.484 80.9592H416.112C419.384 80.9592 421.65 77.6916 420.503 74.6271C419.288 71.3834 421.889 67.988 425.337 68.3162L435.939 69.3252C439.056 69.6219 441.746 71.6362 442.908 74.544L443.369 75.6979C444.638 78.8724 447.712 80.9543 451.131 80.9543H454.3C459.383 80.9543 463.289 76.4554 462.576 71.423L453.741 9.0955ZM422.096 51.1334C416.562 51.5091 412.203 46.4873 413.354 41.0604L416.091 28.1569C416.995 23.8939 421.022 21.0409 425.344 21.6023L431.452 22.3959C435.262 22.8909 438.244 25.9193 438.68 29.7364L439.984 41.1575C440.524 45.8934 437.001 50.1218 432.246 50.4446L422.096 51.1334Z" fill="#FDC500"/>
<path d="M445.465 1.20142C449.981 1.20142 453.809 4.52482 454.443 8.99634L463.278 71.3235C464.052 76.7829 459.815 81.6631 454.301 81.6633H451.131C447.422 81.6633 444.087 79.4051 442.711 75.9612L442.25 74.8069C441.187 72.1461 438.725 70.3031 435.872 70.0315L425.27 69.0227C422.343 68.7445 420.136 71.6255 421.167 74.3782C422.488 77.9064 419.88 81.6681 416.112 81.6682H404.483C399.392 81.668 395.299 77.4771 395.419 72.387L396.892 10.054C397.008 5.13109 401.033 1.20143 405.957 1.20142H445.465ZM425.252 22.3059C421.297 21.7924 417.611 24.403 416.784 28.304L414.048 41.2073C412.995 46.1736 416.984 50.7698 422.049 50.426L432.197 49.7366C436.549 49.4412 439.774 45.5715 439.279 41.2375L437.975 29.8167C437.576 26.3238 434.848 23.5529 431.361 23.0999L425.252 22.3059Z" stroke="#111111" stroke-width="1.41884"/>
</g>
<g filter="url(#filter19_d_728_10663)">
<path d="M403.769 72.4335C403.78 77.1145 399.945 80.8919 395.265 80.8099L355.597 80.1151C351.379 80.0412 347.878 76.836 347.432 72.6411L340.9 11.1515C340.375 6.21386 344.246 1.9104 349.211 1.9104H394.734C399.326 1.9104 403.059 5.61602 403.092 10.2086L403.14 16.9367C403.173 21.5137 399.518 25.2658 394.942 25.3534L373.799 25.758C369.282 25.8444 365.651 29.5051 365.602 34.0229L365.401 52.3468C365.351 56.8452 368.871 60.5757 373.365 60.7875L382.593 61.2225C384.625 61.3183 386.348 59.7442 386.435 57.7118C386.513 55.8956 385.252 54.2954 383.467 53.9483L383.071 53.8713C381.038 53.4756 379.609 51.6379 379.728 49.5695L379.97 45.3394C380.215 41.0644 383.651 37.6659 387.929 37.4681L394.962 37.1429C399.717 36.923 403.695 40.7127 403.706 45.4726L403.769 72.4335Z" fill="#FDC500"/>
<path d="M394.733 1.20142C399.716 1.20142 403.765 5.22106 403.801 10.2034L403.85 16.9319C403.885 21.8972 399.92 25.9677 394.955 26.0627L373.813 26.467C369.68 26.5462 366.357 29.8962 366.312 34.0305L366.11 52.3547C366.065 56.4712 369.286 59.8845 373.398 60.0784L382.626 60.5139C384.266 60.5912 385.656 59.3208 385.727 57.6809C385.79 56.2158 384.771 54.925 383.332 54.6448L382.936 54.5676C380.554 54.104 378.881 51.9512 379.02 49.5286L379.262 45.2991C379.527 40.6613 383.255 36.9738 387.896 36.759L394.93 36.4338C400.088 36.1955 404.404 40.3071 404.416 45.4709L404.479 72.4319C404.49 77.5102 400.329 81.6077 395.252 81.5188L355.585 80.8245C351.009 80.7443 347.21 77.2669 346.727 72.7161L340.194 11.2268C339.625 5.87008 343.824 1.20152 349.211 1.20142H394.733Z" stroke="#111111" stroke-width="1.41884"/>
</g>
<g filter="url(#filter20_d_728_10663)">
<path d="M334.69 1.9104H298.533C297.427 1.9104 296.478 2.6823 296.247 3.75904L295.058 9.37772C293.192 18.2022 280.453 17.7717 279.186 8.84128C278.622 4.86535 275.219 1.9104 271.203 1.9104H240.64C239.15 1.97698 237.893 3.04329 237.584 4.5032L221.426 80.8953C221.421 80.9297 221.446 80.9641 221.48 80.9641H248.32C248.345 80.9641 248.369 80.9445 248.374 80.9199L249.338 76.4246C250.164 72.5712 253.569 69.8182 257.51 69.8182H260.84C264.259 69.8182 267.334 71.9005 268.602 75.0755L270.538 79.9218C270.789 80.5511 271.399 80.9641 272.082 80.9641H305.529C306.311 80.9641 306.99 80.4184 307.152 79.6514L307.842 76.4274C308.667 72.5726 312.073 69.8182 316.015 69.8182H319.348C322.769 69.8182 325.845 71.9031 327.112 75.081L329.242 80.4233C329.375 80.7527 329.69 80.969 330.044 80.969H346.922C347.448 80.969 347.851 80.502 347.778 79.9857L337.001 3.9262C336.838 2.76589 335.85 1.9104 334.69 1.9104ZM245.437 49.1637C245.435 49.1637 245.434 49.1625 245.435 49.1613L251.339 23.6712C251.398 23.4155 251.624 23.2385 251.885 23.2385H262.927C263.212 23.2385 263.453 23.4499 263.483 23.7351L266.393 49.2276C266.433 49.5619 266.172 49.852 265.838 49.852H245.985C245.627 49.852 245.357 49.5192 245.438 49.1661C245.439 49.1649 245.438 49.1637 245.437 49.1637ZM303.937 49.1637L309.846 23.6712C309.905 23.4155 310.131 23.2385 310.392 23.2385H321.435C321.72 23.2385 321.961 23.4499 321.99 23.7351L324.891 49.2276C324.93 49.5619 324.67 49.852 324.335 49.852H304.482C304.123 49.852 303.853 49.5177 303.937 49.1637Z" fill="#FDC500"/>
<path d="M271.203 1.20142C275.572 1.20156 279.275 4.4159 279.889 8.74146C281.044 16.8861 292.662 17.2788 294.364 9.23071L295.553 3.61255L295.554 3.6106C295.855 2.20822 297.091 1.20142 298.533 1.20142H334.689C336.203 1.20142 337.491 2.31675 337.703 3.82642L348.48 79.886H348.479C348.614 80.8298 347.879 81.678 346.922 81.678H330.044C329.395 81.678 328.823 81.2809 328.584 80.6887L328.583 80.6858L326.453 75.344C325.294 72.436 322.479 70.5277 319.349 70.5276H316.015C312.407 70.5278 309.29 73.0481 308.535 76.5754L307.846 79.8L307.845 79.7991C307.612 80.8955 306.644 81.6731 305.529 81.6731H272.082C271.171 81.6731 270.347 81.1566 269.952 80.3499L269.879 80.1848L267.943 75.3391C266.783 72.4336 263.969 70.5276 260.84 70.5276H257.511C253.904 70.5276 250.787 73.0471 250.031 76.5735L249.069 81.0579L249.07 81.0588C248.998 81.42 248.678 81.673 248.32 81.6731H221.48C220.926 81.6731 220.671 81.1641 220.724 80.7952L220.728 80.7717L220.732 80.7483L236.89 4.35669C237.265 2.5805 238.795 1.28257 240.608 1.20142H271.203ZM304.67 49.1428H324.168L321.3 23.9475H310.51L304.67 49.1428ZM246.167 49.1428H265.67L262.793 23.9475H252.003L246.167 49.1428Z" stroke="#111111" stroke-width="1.41884"/>
</g>
<g filter="url(#filter21_d_728_10663)">
<path d="M190.661 44.5868C190.883 40.7391 193.976 37.6809 197.826 37.5029L211.873 36.8532C217.223 36.6058 221.421 41.3821 220.49 46.6555L215.654 74.0541C214.948 78.0479 211.478 80.9592 207.423 80.9592H168.054C163.331 80.9592 159.546 77.0483 159.701 72.3275L161.653 12.6942C161.796 8.33326 165.269 4.81589 169.628 4.61808L217.437 2.4484C223.213 2.18628 227.504 7.72711 225.806 13.2538L224.003 19.1186C222.878 22.7783 219.41 25.2057 215.587 25.0101L189.527 23.6767C184.833 23.4366 180.864 27.1126 180.744 31.8112L180.128 55.9865C180.009 60.6787 183.776 64.5494 188.469 64.5575L197.608 64.5732C200.565 64.5783 203.081 62.4191 203.524 59.4956C204.1 55.6969 200.943 52.3538 197.112 52.6477C193.46 52.9278 190.354 49.928 190.564 46.2717L190.661 44.5868Z" fill="#FDC500"/>
<path d="M217.405 1.7395C223.671 1.45513 228.326 7.46639 226.483 13.4622L224.681 19.3274C223.46 23.2975 219.698 25.9312 215.55 25.719L189.49 24.385C185.195 24.1653 181.563 27.5297 181.453 31.8293L180.838 56.0042C180.729 60.2982 184.175 63.8405 188.471 63.8479L197.609 63.8635C200.215 63.868 202.432 61.9653 202.823 59.3889C203.329 56.0499 200.55 53.0951 197.166 53.3547C193.094 53.6671 189.621 50.3231 189.856 46.2307L189.953 44.5461C190.196 40.3358 193.58 36.9891 197.793 36.7942L211.841 36.1448C217.644 35.8766 222.198 41.0577 221.188 46.7786L216.353 74.177C215.588 78.5097 211.823 81.6681 207.423 81.6682H168.055C162.931 81.6682 158.824 77.4254 158.991 72.304L160.943 12.6711C161.098 7.94007 164.867 4.12402 169.596 3.90942L217.405 1.7395Z" stroke="#111111" stroke-width="1.41884"/>
</g>
<g filter="url(#filter22_d_728_10663)">
<path d="M40.5872 45.22C40.2087 40.2528 44.2319 36.0594 49.2106 36.2319L69.7827 36.9445C74.4201 37.1052 78.0389 41.0125 77.8442 45.6486L76.7909 70.7162C76.608 75.0707 73.1099 78.5536 68.7547 78.7177L19.6849 80.5658C15.0699 80.7396 11.1886 77.1377 11.0178 72.5227L8.80128 12.6378C8.62605 7.90371 12.4164 3.97046 17.1537 3.97046H70.9506C75.5667 3.97046 79.3088 7.71255 79.3088 12.3286V16.34C79.3088 20.9544 75.5693 24.6958 70.9549 24.6982L40.4305 24.7142C35.8989 24.7166 32.1947 28.3296 32.0794 32.8598L31.5166 54.976C31.3846 60.1619 35.9594 64.2142 41.0914 63.4574L50.7481 62.0335C52.6823 61.7482 54.2034 60.2335 54.4967 58.3005C54.9258 55.4725 52.6125 52.9805 49.7604 53.1985L47.4882 53.3721C44.0402 53.6356 41.0316 51.0535 40.7689 47.6054L40.5872 45.22Z" fill="#FDC500"/>
<path d="M70.9502 3.26147C75.9581 3.26147 80.0186 7.32096 80.0186 12.3289V16.3396C80.0186 21.3457 75.9611 25.4053 70.9551 25.408L40.4307 25.4236C36.2839 25.4259 32.8946 28.7322 32.7891 32.8777L32.2256 54.9939C32.1048 59.7396 36.2918 63.4482 40.9883 62.7556L50.6445 61.3318C52.2702 61.0921 53.5484 59.8187 53.7949 58.1941C54.1556 55.8172 52.2116 53.7228 49.8145 53.906L47.542 54.0798C43.7033 54.373 40.354 51.4977 40.0615 47.6589L39.8799 45.2742C39.4693 39.8854 43.8342 35.3361 49.2354 35.5232L69.8076 36.2351C74.8384 36.4096 78.764 40.649 78.5527 45.6785L77.5 70.7458C77.3015 75.4699 73.5061 79.2486 68.7812 79.4265L19.7119 81.2751C14.7053 81.4637 10.4939 77.5554 10.3086 72.5486L8.09277 12.6638C7.90279 7.52815 12.0142 3.26171 17.1533 3.26147H70.9502Z" stroke="#111111" stroke-width="1.41884"/>
</g>
<g filter="url(#filter23_d_728_10663)">
<path d="M79.6357 3.04266C75.0844 3.13191 71.4414 6.84701 71.4414 11.3992V69.5034C71.4414 74.1195 75.1835 77.8616 79.7996 77.8616H119.77C124.16 77.8616 127.802 74.4656 128.108 70.0865L132.232 11.1176C132.574 6.21884 128.64 2.08172 123.73 2.178L79.6357 3.04266ZM114.546 55.2612C114.392 59.7632 110.698 63.3331 106.193 63.3331H95.2417C90.3873 63.3331 86.5541 59.2117 86.9054 54.3701L88.7966 28.3045C89.0898 24.264 92.2383 21.0155 96.2677 20.5961L106.256 19.5564C111.302 19.0313 115.649 23.0858 115.475 28.1559L114.546 55.2612Z" fill="#FDC500"/>
<path d="M123.716 1.46851C129.042 1.36406 133.311 5.85233 132.939 11.1667L128.815 70.1365C128.483 74.8869 124.533 78.5708 119.771 78.571H79.7998C74.792 78.571 70.7325 74.5115 70.7324 69.5037V11.3992C70.7325 6.46059 74.6844 2.43056 79.6221 2.33374L123.716 1.46851ZM114.766 28.1316C114.925 23.4918 110.948 19.7819 106.33 20.2625L96.3408 21.3015C92.6536 21.6854 89.7722 24.6587 89.5039 28.3562L87.6133 54.4216C87.2919 58.8521 90.7992 62.6235 95.2412 62.6238H106.193C110.315 62.6236 113.696 59.3568 113.837 55.2371L114.766 28.1316Z" stroke="#111111" stroke-width="1.41884"/>
</g>
<defs>
<filter id="filter0_d_728_10663" x="397.266" y="83.9412" width="76.746" height="82.3781" filterUnits="userSpaceOnUse" color-interpolation-filters="sRGB">
<feFlood flood-opacity="0" result="BackgroundImageFix"/>
<feColorMatrix in="SourceAlpha" type="matrix" values="0 0 0 0 0 0 0 0 0 0 0 0 0 0 0 0 0 0 127 0" result="hardAlpha"/>
<feOffset dx="-7.37487" dy="-0.491658"/>
<feComposite in2="hardAlpha" operator="out"/>
<feColorMatrix type="matrix" values="0 0 0 0 0.541176 0 0 0 0 0.219608 0 0 0 0 0.960784 0 0 0 1 0"/>
<feBlend mode="normal" in2="BackgroundImageFix" result="effect1_dropShadow_728_10663"/>
<feBlend mode="normal" in="SourceGraphic" in2="effect1_dropShadow_728_10663" result="shape"/>
</filter>
<filter id="filter1_d_728_10663" x="341.996" y="83.9412" width="73.1288" height="82.2302" filterUnits="userSpaceOnUse" color-interpolation-filters="sRGB">
<feFlood flood-opacity="0" result="BackgroundImageFix"/>
<feColorMatrix in="SourceAlpha" type="matrix" values="0 0 0 0 0 0 0 0 0 0 0 0 0 0 0 0 0 0 127 0" result="hardAlpha"/>
<feOffset dx="-7.37487" dy="-0.491658"/>
<feComposite in2="hardAlpha" operator="out"/>
<feColorMatrix type="matrix" values="0 0 0 0 0.541176 0 0 0 0 0.219608 0 0 0 0 0.960784 0 0 0 1 0"/>
<feBlend mode="normal" in2="BackgroundImageFix" result="effect1_dropShadow_728_10663"/>
<feBlend mode="normal" in="SourceGraphic" in2="effect1_dropShadow_728_10663" result="shape"/>
</filter>
<filter id="filter2_d_728_10663" x="222.567" y="83.9412" width="136.574" height="82.3881" filterUnits="userSpaceOnUse" color-interpolation-filters="sRGB">
<feFlood flood-opacity="0" result="BackgroundImageFix"/>
<feColorMatrix in="SourceAlpha" type="matrix" values="0 0 0 0 0 0 0 0 0 0 0 0 0 0 0 0 0 0 127 0" result="hardAlpha"/>
<feOffset dx="-7.37487" dy="-0.491658"/>
<feComposite in2="hardAlpha" operator="out"/>
<feColorMatrix type="matrix" values="0 0 0 0 0.541176 0 0 0 0 0.219608 0 0 0 0 0.960784 0 0 0 1 0"/>
<feBlend mode="normal" in2="BackgroundImageFix" result="effect1_dropShadow_728_10663"/>
<feBlend mode="normal" in="SourceGraphic" in2="effect1_dropShadow_728_10663" result="shape"/>
</filter>
<filter id="filter3_d_728_10663" x="160.836" y="84.4703" width="76.6991" height="81.8491" filterUnits="userSpaceOnUse" color-interpolation-filters="sRGB">
<feFlood flood-opacity="0" result="BackgroundImageFix"/>
<feColorMatrix in="SourceAlpha" type="matrix" values="0 0 0 0 0 0 0 0 0 0 0 0 0 0 0 0 0 0 127 0" result="hardAlpha"/>
<feOffset dx="-7.37487" dy="-0.491658"/>
<feComposite in2="hardAlpha" operator="out"/>
<feColorMatrix type="matrix" values="0 0 0 0 0.541176 0 0 0 0 0.219608 0 0 0 0 0.960784 0 0 0 1 0"/>
<feBlend mode="normal" in2="BackgroundImageFix" result="effect1_dropShadow_728_10663"/>
<feBlend mode="normal" in="SourceGraphic" in2="effect1_dropShadow_728_10663" result="shape"/>
</filter>
<filter id="filter4_d_728_10663" x="9.93372" y="86.0013" width="80.7264" height="79.9309" filterUnits="userSpaceOnUse" color-interpolation-filters="sRGB">
<feFlood flood-opacity="0" result="BackgroundImageFix"/>
<feColorMatrix in="SourceAlpha" type="matrix" values="0 0 0 0 0 0 0 0 0 0 0 0 0 0 0 0 0 0 127 0" result="hardAlpha"/>
<feOffset dx="-7.37487" dy="-0.491658"/>
<feComposite in2="hardAlpha" operator="out"/>
<feColorMatrix type="matrix" values="0 0 0 0 0.541176 0 0 0 0 0.219608 0 0 0 0 0.960784 0 0 0 1 0"/>
<feBlend mode="normal" in2="BackgroundImageFix" result="effect1_dropShadow_728_10663"/>
<feBlend mode="normal" in="SourceGraphic" in2="effect1_dropShadow_728_10663" result="shape"/>
</filter>
<filter id="filter5_d_728_10663" x="72.5822" y="84.2073" width="71.0233" height="79.0146" filterUnits="userSpaceOnUse" color-interpolation-filters="sRGB">
<feFlood flood-opacity="0" result="BackgroundImageFix"/>
<feColorMatrix in="SourceAlpha" type="matrix" values="0 0 0 0 0 0 0 0 0 0 0 0 0 0 0 0 0 0 127 0" result="hardAlpha"/>
<feOffset dx="-7.37487" dy="-0.491658"/>
<feComposite in2="hardAlpha" operator="out"/>
<feColorMatrix type="matrix" values="0 0 0 0 0.541176 0 0 0 0 0.219608 0 0 0 0 0.960784 0 0 0 1 0"/>
<feBlend mode="normal" in2="BackgroundImageFix" result="effect1_dropShadow_728_10663"/>
<feBlend mode="normal" in="SourceGraphic" in2="effect1_dropShadow_728_10663" result="shape"/>
</filter>
<filter id="filter6_d_728_10663" x="398.684" y="55.9607" width="76.746" height="82.3781" filterUnits="userSpaceOnUse" color-interpolation-filters="sRGB">
<feFlood flood-opacity="0" result="BackgroundImageFix"/>
<feColorMatrix in="SourceAlpha" type="matrix" values="0 0 0 0 0 0 0 0 0 0 0 0 0 0 0 0 0 0 127 0" result="hardAlpha"/>
<feOffset dx="-7.37487" dy="-0.491658"/>
<feComposite in2="hardAlpha" operator="out"/>
<feColorMatrix type="matrix" values="0 0 0 0 0 0 0 0 0 0 0 0 0 0 0 0 0 0 1 0"/>
<feBlend mode="normal" in2="BackgroundImageFix" result="effect1_dropShadow_728_10663"/>
<feBlend mode="normal" in="SourceGraphic" in2="effect1_dropShadow_728_10663" result="shape"/>
</filter>
<filter id="filter7_d_728_10663" x="343.414" y="55.9607" width="73.1288" height="82.2302" filterUnits="userSpaceOnUse" color-interpolation-filters="sRGB">
<feFlood flood-opacity="0" result="BackgroundImageFix"/>
<feColorMatrix in="SourceAlpha" type="matrix" values="0 0 0 0 0 0 0 0 0 0 0 0 0 0 0 0 0 0 127 0" result="hardAlpha"/>
<feOffset dx="-7.37487" dy="-0.491658"/>
<feComposite in2="hardAlpha" operator="out"/>
<feColorMatrix type="matrix" values="0 0 0 0 0 0 0 0 0 0 0 0 0 0 0 0 0 0 1 0"/>
<feBlend mode="normal" in2="BackgroundImageFix" result="effect1_dropShadow_728_10663"/>
<feBlend mode="normal" in="SourceGraphic" in2="effect1_dropShadow_728_10663" result="shape"/>
</filter>
<filter id="filter8_d_728_10663" x="223.985" y="55.9607" width="136.574" height="82.3881" filterUnits="userSpaceOnUse" color-interpolation-filters="sRGB">
<feFlood flood-opacity="0" result="BackgroundImageFix"/>
<feColorMatrix in="SourceAlpha" type="matrix" values="0 0 0 0 0 0 0 0 0 0 0 0 0 0 0 0 0 0 127 0" result="hardAlpha"/>
<feOffset dx="-7.37487" dy="-0.491658"/>
<feComposite in2="hardAlpha" operator="out"/>
<feColorMatrix type="matrix" values="0 0 0 0 0 0 0 0 0 0 0 0 0 0 0 0 0 0 1 0"/>
<feBlend mode="normal" in2="BackgroundImageFix" result="effect1_dropShadow_728_10663"/>
<feBlend mode="normal" in="SourceGraphic" in2="effect1_dropShadow_728_10663" result="shape"/>
</filter>
<filter id="filter9_d_728_10663" x="162.254" y="56.4898" width="76.6991" height="81.8491" filterUnits="userSpaceOnUse" color-interpolation-filters="sRGB">
<feFlood flood-opacity="0" result="BackgroundImageFix"/>
<feColorMatrix in="SourceAlpha" type="matrix" values="0 0 0 0 0 0 0 0 0 0 0 0 0 0 0 0 0 0 127 0" result="hardAlpha"/>
<feOffset dx="-7.37487" dy="-0.491658"/>
<feComposite in2="hardAlpha" operator="out"/>
<feColorMatrix type="matrix" values="0 0 0 0 0 0 0 0 0 0 0 0 0 0 0 0 0 0 1 0"/>
<feBlend mode="normal" in2="BackgroundImageFix" result="effect1_dropShadow_728_10663"/>
<feBlend mode="normal" in="SourceGraphic" in2="effect1_dropShadow_728_10663" result="shape"/>
</filter>
<filter id="filter10_d_728_10663" x="11.3517" y="58.0208" width="80.7264" height="79.9309" filterUnits="userSpaceOnUse" color-interpolation-filters="sRGB">
<feFlood flood-opacity="0" result="BackgroundImageFix"/>
<feColorMatrix in="SourceAlpha" type="matrix" values="0 0 0 0 0 0 0 0 0 0 0 0 0 0 0 0 0 0 127 0" result="hardAlpha"/>
<feOffset dx="-7.37487" dy="-0.491658"/>
<feComposite in2="hardAlpha" operator="out"/>
<feColorMatrix type="matrix" values="0 0 0 0 0 0 0 0 0 0 0 0 0 0 0 0 0 0 1 0"/>
<feBlend mode="normal" in2="BackgroundImageFix" result="effect1_dropShadow_728_10663"/>
<feBlend mode="normal" in="SourceGraphic" in2="effect1_dropShadow_728_10663" result="shape"/>
</filter>
<filter id="filter11_d_728_10663" x="74.0001" y="56.2268" width="71.0233" height="79.0146" filterUnits="userSpaceOnUse" color-interpolation-filters="sRGB">
<feFlood flood-opacity="0" result="BackgroundImageFix"/>
<feColorMatrix in="SourceAlpha" type="matrix" values="0 0 0 0 0 0 0 0 0 0 0 0 0 0 0 0 0 0 127 0" result="hardAlpha"/>
<feOffset dx="-7.37487" dy="-0.491658"/>
<feComposite in2="hardAlpha" operator="out"/>
<feColorMatrix type="matrix" values="0 0 0 0 0 0 0 0 0 0 0 0 0 0 0 0 0 0 1 0"/>
<feBlend mode="normal" in2="BackgroundImageFix" result="effect1_dropShadow_728_10663"/>
<feBlend mode="normal" in="SourceGraphic" in2="effect1_dropShadow_728_10663" result="shape"/>
</filter>
<filter id="filter12_d_728_10663" x="393.008" y="27.9803" width="76.746" height="82.3781" filterUnits="userSpaceOnUse" color-interpolation-filters="sRGB">
<feFlood flood-opacity="0" result="BackgroundImageFix"/>
<feColorMatrix in="SourceAlpha" type="matrix" values="0 0 0 0 0 0 0 0 0 0 0 0 0 0 0 0 0 0 127 0" result="hardAlpha"/>
<feOffset dx="-7.37487" dy="-0.491658"/>
<feComposite in2="hardAlpha" operator="out"/>
<feColorMatrix type="matrix" values="0 0 0 0 1 0 0 0 0 0.8 0 0 0 0 0 0 0 0 1 0"/>
<feBlend mode="normal" in2="BackgroundImageFix" result="effect1_dropShadow_728_10663"/>
<feBlend mode="normal" in="SourceGraphic" in2="effect1_dropShadow_728_10663" result="shape"/>
</filter>
<filter id="filter13_d_728_10663" x="337.738" y="27.9803" width="73.1288" height="82.2302" filterUnits="userSpaceOnUse" color-interpolation-filters="sRGB">
<feFlood flood-opacity="0" result="BackgroundImageFix"/>
<feColorMatrix in="SourceAlpha" type="matrix" values="0 0 0 0 0 0 0 0 0 0 0 0 0 0 0 0 0 0 127 0" result="hardAlpha"/>
<feOffset dx="-7.37487" dy="-0.491658"/>
<feComposite in2="hardAlpha" operator="out"/>
<feColorMatrix type="matrix" values="0 0 0 0 1 0 0 0 0 0.8 0 0 0 0 0 0 0 0 1 0"/>
<feBlend mode="normal" in2="BackgroundImageFix" result="effect1_dropShadow_728_10663"/>
<feBlend mode="normal" in="SourceGraphic" in2="effect1_dropShadow_728_10663" result="shape"/>
</filter>
<filter id="filter14_d_728_10663" x="218.309" y="27.9803" width="136.574" height="82.3881" filterUnits="userSpaceOnUse" color-interpolation-filters="sRGB">
<feFlood flood-opacity="0" result="BackgroundImageFix"/>
<feColorMatrix in="SourceAlpha" type="matrix" values="0 0 0 0 0 0 0 0 0 0 0 0 0 0 0 0 0 0 127 0" result="hardAlpha"/>
<feOffset dx="-7.37487" dy="-0.491658"/>
<feComposite in2="hardAlpha" operator="out"/>
<feColorMatrix type="matrix" values="0 0 0 0 1 0 0 0 0 0.8 0 0 0 0 0 0 0 0 1 0"/>
<feBlend mode="normal" in2="BackgroundImageFix" result="effect1_dropShadow_728_10663"/>
<feBlend mode="normal" in="SourceGraphic" in2="effect1_dropShadow_728_10663" result="shape"/>
</filter>
<filter id="filter15_d_728_10663" x="156.578" y="28.5093" width="76.6991" height="81.8491" filterUnits="userSpaceOnUse" color-interpolation-filters="sRGB">
<feFlood flood-opacity="0" result="BackgroundImageFix"/>
<feColorMatrix in="SourceAlpha" type="matrix" values="0 0 0 0 0 0 0 0 0 0 0 0 0 0 0 0 0 0 127 0" result="hardAlpha"/>
<feOffset dx="-7.37487" dy="-0.491658"/>
<feComposite in2="hardAlpha" operator="out"/>
<feColorMatrix type="matrix" values="0 0 0 0 1 0 0 0 0 0.8 0 0 0 0 0 0 0 0 1 0"/>
<feBlend mode="normal" in2="BackgroundImageFix" result="effect1_dropShadow_728_10663"/>
<feBlend mode="normal" in="SourceGraphic" in2="effect1_dropShadow_728_10663" result="shape"/>
</filter>
<filter id="filter16_d_728_10663" x="5.67591" y="30.0403" width="80.7264" height="79.9309" filterUnits="userSpaceOnUse" color-interpolation-filters="sRGB">
<feFlood flood-opacity="0" result="BackgroundImageFix"/>
<feColorMatrix in="SourceAlpha" type="matrix" values="0 0 0 0 0 0 0 0 0 0 0 0 0 0 0 0 0 0 127 0" result="hardAlpha"/>
<feOffset dx="-7.37487" dy="-0.491658"/>
<feComposite in2="hardAlpha" operator="out"/>
<feColorMatrix type="matrix" values="0 0 0 0 1 0 0 0 0 0.8 0 0 0 0 0 0 0 0 1 0"/>
<feBlend mode="normal" in2="BackgroundImageFix" result="effect1_dropShadow_728_10663"/>
<feBlend mode="normal" in="SourceGraphic" in2="effect1_dropShadow_728_10663" result="shape"/>
</filter>
<filter id="filter17_d_728_10663" x="68.3243" y="28.2464" width="71.0233" height="79.0146" filterUnits="userSpaceOnUse" color-interpolation-filters="sRGB">
<feFlood flood-opacity="0" result="BackgroundImageFix"/>
<feColorMatrix in="SourceAlpha" type="matrix" values="0 0 0 0 0 0 0 0 0 0 0 0 0 0 0 0 0 0 127 0" result="hardAlpha"/>
<feOffset dx="-7.37487" dy="-0.491658"/>
<feComposite in2="hardAlpha" operator="out"/>
<feColorMatrix type="matrix" values="0 0 0 0 1 0 0 0 0 0.8 0 0 0 0 0 0 0 0 1 0"/>
<feBlend mode="normal" in2="BackgroundImageFix" result="effect1_dropShadow_728_10663"/>
<feBlend mode="normal" in="SourceGraphic" in2="effect1_dropShadow_728_10663" result="shape"/>
</filter>
<filter id="filter18_d_728_10663" x="387.332" y="-0.000203192" width="76.746" height="82.3781" filterUnits="userSpaceOnUse" color-interpolation-filters="sRGB">
<feFlood flood-opacity="0" result="BackgroundImageFix"/>
<feColorMatrix in="SourceAlpha" type="matrix" values="0 0 0 0 0 0 0 0 0 0 0 0 0 0 0 0 0 0 127 0" result="hardAlpha"/>
<feOffset dx="-7.37487" dy="-0.491658"/>
<feComposite in2="hardAlpha" operator="out"/>
<feColorMatrix type="matrix" values="0 0 0 0 0.541176 0 0 0 0 0.219608 0 0 0 0 0.960784 0 0 0 1 0"/>
<feBlend mode="normal" in2="BackgroundImageFix" result="effect1_dropShadow_728_10663"/>
<feBlend mode="normal" in="SourceGraphic" in2="effect1_dropShadow_728_10663" result="shape"/>
</filter>
<filter id="filter19_d_728_10663" x="332.059" y="-0.000203192" width="73.1288" height="82.2302" filterUnits="userSpaceOnUse" color-interpolation-filters="sRGB">
<feFlood flood-opacity="0" result="BackgroundImageFix"/>
<feColorMatrix in="SourceAlpha" type="matrix" values="0 0 0 0 0 0 0 0 0 0 0 0 0 0 0 0 0 0 127 0" result="hardAlpha"/>
<feOffset dx="-7.37487" dy="-0.491658"/>
<feComposite in2="hardAlpha" operator="out"/>
<feColorMatrix type="matrix" values="0 0 0 0 0.541176 0 0 0 0 0.219608 0 0 0 0 0.960784 0 0 0 1 0"/>
<feBlend mode="normal" in2="BackgroundImageFix" result="effect1_dropShadow_728_10663"/>
<feBlend mode="normal" in="SourceGraphic" in2="effect1_dropShadow_728_10663" result="shape"/>
</filter>
<filter id="filter20_d_728_10663" x="212.633" y="-0.000203192" width="136.574" height="82.3881" filterUnits="userSpaceOnUse" color-interpolation-filters="sRGB">
<feFlood flood-opacity="0" result="BackgroundImageFix"/>
<feColorMatrix in="SourceAlpha" type="matrix" values="0 0 0 0 0 0 0 0 0 0 0 0 0 0 0 0 0 0 127 0" result="hardAlpha"/>
<feOffset dx="-7.37487" dy="-0.491658"/>
<feComposite in2="hardAlpha" operator="out"/>
<feColorMatrix type="matrix" values="0 0 0 0 0.541176 0 0 0 0 0.219608 0 0 0 0 0.960784 0 0 0 1 0"/>
<feBlend mode="normal" in2="BackgroundImageFix" result="effect1_dropShadow_728_10663"/>
<feBlend mode="normal" in="SourceGraphic" in2="effect1_dropShadow_728_10663" result="shape"/>
</filter>
<filter id="filter21_d_728_10663" x="150.902" y="0.52885" width="76.6991" height="81.8491" filterUnits="userSpaceOnUse" color-interpolation-filters="sRGB">
<feFlood flood-opacity="0" result="BackgroundImageFix"/>
<feColorMatrix in="SourceAlpha" type="matrix" values="0 0 0 0 0 0 0 0 0 0 0 0 0 0 0 0 0 0 127 0" result="hardAlpha"/>
<feOffset dx="-7.37487" dy="-0.491658"/>
<feComposite in2="hardAlpha" operator="out"/>
<feColorMatrix type="matrix" values="0 0 0 0 0.541176 0 0 0 0 0.219608 0 0 0 0 0.960784 0 0 0 1 0"/>
<feBlend mode="normal" in2="BackgroundImageFix" result="effect1_dropShadow_728_10663"/>
<feBlend mode="normal" in="SourceGraphic" in2="effect1_dropShadow_728_10663" result="shape"/>
</filter>
<filter id="filter22_d_728_10663" x="0.000126362" y="2.05986" width="80.7264" height="79.9309" filterUnits="userSpaceOnUse" color-interpolation-filters="sRGB">
<feFlood flood-opacity="0" result="BackgroundImageFix"/>
<feColorMatrix in="SourceAlpha" type="matrix" values="0 0 0 0 0 0 0 0 0 0 0 0 0 0 0 0 0 0 127 0" result="hardAlpha"/>
<feOffset dx="-7.37487" dy="-0.491658"/>
<feComposite in2="hardAlpha" operator="out"/>
<feColorMatrix type="matrix" values="0 0 0 0 0.541176 0 0 0 0 0.219608 0 0 0 0 0.960784 0 0 0 1 0"/>
<feBlend mode="normal" in2="BackgroundImageFix" result="effect1_dropShadow_728_10663"/>
<feBlend mode="normal" in="SourceGraphic" in2="effect1_dropShadow_728_10663" result="shape"/>
</filter>
<filter id="filter23_d_728_10663" x="62.6486" y="0.26591" width="71.0233" height="79.0146" filterUnits="userSpaceOnUse" color-interpolation-filters="sRGB">
<feFlood flood-opacity="0" result="BackgroundImageFix"/>
<feColorMatrix in="SourceAlpha" type="matrix" values="0 0 0 0 0 0 0 0 0 0 0 0 0 0 0 0 0 0 127 0" result="hardAlpha"/>
<feOffset dx="-7.37487" dy="-0.491658"/>
<feComposite in2="hardAlpha" operator="out"/>
<feColorMatrix type="matrix" values="0 0 0 0 0.541176 0 0 0 0 0.219608 0 0 0 0 0.960784 0 0 0 1 0"/>
<feBlend mode="normal" in2="BackgroundImageFix" result="effect1_dropShadow_728_10663"/>
<feBlend mode="normal" in="SourceGraphic" in2="effect1_dropShadow_728_10663" result="shape"/>
</filter>
</defs>
</svg>
