<svg width="56" height="28" viewBox="0 0 56 28" fill="none" xmlns="http://www.w3.org/2000/svg">
<g clip-path="url(#clip0_652_8601)">
<path d="M0 0V28H27.6237V0H0ZM17.7447 21.0148L16.8933 17.2244L12.5593 17.5612L12.8223 12.9015L25.9925 10.8687L26.8112 26.7584L0.746335 27.3965L0.557222 0.849584L26.9373 0.912692L26.496 9.40065L9.80352 8.48007L8.1124 21.1426L17.7447 21.0148Z" fill="#FDC500"/>
<path d="M22.4912 25.4923C24.0175 25.4923 25.2548 24.2381 25.2548 22.6911C25.2548 21.144 24.0175 19.8899 22.4912 19.8899C20.9649 19.8899 19.7277 21.144 19.7277 22.6911C19.7277 24.2381 20.9649 25.4923 22.4912 25.4923Z" fill="#FDC500"/>
<path d="M44.1881 12.8771L39.458 12.2531L37.9093 19.658L44.8963 19.1768L44.1881 12.8771ZM44.1881 12.8771L39.458 12.2531L37.9093 19.658L44.8963 19.1768L44.1881 12.8771ZM28.375 0V28H55.9987V0H28.375ZM55.0975 27.3042L50.2965 27.0479L46.0395 26.8854L44.9072 23.9027L39.5023 23.3821L40.6541 26.5966L29.5992 27.1764L28.9696 0.755712L55.1606 0.564812L55.0975 27.3042ZM44.1881 12.8771L39.458 12.2531L37.9093 19.658L44.8963 19.1768L44.1881 12.8771ZM44.1881 12.8771L39.458 12.2531L37.9093 19.658L44.8963 19.1768L44.1881 12.8771ZM44.1881 12.8771L39.458 12.2531L37.9093 19.658L44.8963 19.1768L44.1881 12.8771Z" fill="#FDC500"/>
<path d="M53.5916 24.4226C51.3106 26.177 48.807 24.5685 48.807 22.3669C48.807 20.8199 50.0436 19.5657 51.5705 19.5657C53.7449 19.5657 55.3333 22.1113 53.5916 24.4226Z" fill="#FDC500"/>
</g>
<defs>
<clipPath id="clip0_652_8601">
<rect width="56" height="28" fill="white"/>
</clipPath>
</defs>
</svg>
