<svg width="76" height="76" viewBox="0 0 76 76" fill="none" xmlns="http://www.w3.org/2000/svg">
<path d="M65.4093 48.7738C62.9374 48.9628 60.8459 48.5847 58.374 48.3957C58.1839 48.3957 57.8036 48.0176 57.6134 48.0176C55.5219 47.6395 53.6204 46.6943 51.719 45.7491C61.9867 44.0476 70.9235 37.053 75.4869 27.9788C73.7756 24.3869 72.4446 20.4169 70.5432 16.8251C67.8812 24.5759 61.7966 31.5706 53.4303 33.6501C54.381 32.5159 55.1416 31.1925 55.9021 29.8692C56.0923 29.113 56.4726 28.5459 56.8529 27.7897C59.8951 20.4169 60.0853 11.9099 57.6134 4.34805C56.6627 4.34805 55.9021 3.78091 55.1416 3.40282C52.0993 2.26855 49.057 1.32332 46.2048 0C46.7753 1.32332 47.5358 2.64664 47.9161 4.15901C48.1063 4.91519 48.2964 5.48233 48.4865 6.23851C49.6274 10.5866 49.4373 14.9346 48.2964 19.0936C48.1063 19.6608 47.9161 20.2279 47.726 20.795C47.1555 21.9293 46.7753 23.0636 46.0147 24.0088C44.6837 13.8003 37.2681 4.91519 28.1412 0.378091C24.5285 2.0795 20.5355 3.40282 16.9228 5.29328C24.7186 7.93992 32.1342 13.9894 33.8455 22.3074C30.4229 19.0936 25.8595 17.7703 21.1059 17.0141C17.303 16.2579 13.6903 16.0689 9.69731 16.8251C7.98602 17.2032 6.27473 17.5812 4.56344 18.1484C3.04229 21.9293 1.52115 25.7102 0 29.4911C7.41559 25.8993 16.9228 24.954 24.1482 29.6802C16.9228 30.4364 10.648 34.4063 5.7043 39.6996C5.13387 40.4558 4.75358 41.0229 3.99301 41.7791C2.47186 43.4805 1.52115 45.56 0.380287 47.4505C1.90143 50.0971 2.66201 52.9328 3.99301 55.7685C4.56344 56.7137 4.94373 57.6589 5.32401 58.6042C7.98602 50.6642 14.0706 43.6696 22.4369 41.5901C21.4862 43.1024 20.5355 44.8038 19.5848 46.5052C19.3946 47.2614 19.0143 47.8286 18.634 48.5847C15.7819 55.7685 15.972 63.7084 18.4439 70.8921C22.2468 72.2155 25.8595 74.295 29.8525 75.2402C26.0496 68.0564 25.4792 58.6042 29.8525 51.4204C30.0426 53.3109 30.8032 55.0123 31.1835 56.9028C31.3736 57.6589 31.7539 58.2261 32.1342 58.9823C35.3667 65.7879 40.8808 71.4593 47.726 74.8621C49.8176 74.295 51.3387 73.1607 53.4303 72.4045C55.3317 71.8374 57.043 70.8921 58.9444 70.136C51.1486 67.3003 43.9231 61.4398 42.0217 53.1218C50.388 58.9823 61.7966 60.4946 71.4939 57.0918C72.8249 53.3109 74.5362 49.53 75.8672 45.7491C72.6348 47.4505 69.022 48.2067 65.4093 48.7738Z" fill="white"/>
</svg>
