<svg width="26" height="26" viewBox="0 0 26 26" fill="none" xmlns="http://www.w3.org/2000/svg">
<path d="M5.34098 3.17303L6.87305 4.7051C5.30468 6.27345 4.33464 8.44011 4.33464 10.8333C4.33464 13.2266 5.30468 15.3933 6.87305 16.9616L5.34098 18.4937C3.38053 16.5332 2.16797 13.8248 2.16797 10.8333C2.16797 7.84181 3.38053 5.13348 5.34098 3.17303ZM20.6617 3.17303C22.6221 5.13348 23.8346 7.84181 23.8346 10.8333C23.8346 13.8248 22.6221 16.5332 20.6617 18.4937L19.1296 16.9616C20.698 15.3933 21.668 13.2266 21.668 10.8333C21.668 8.44011 20.698 6.27345 19.1296 4.7051L20.6617 3.17303ZM8.40511 6.23716L9.93717 7.76923C9.15299 8.5534 8.66797 9.63673 8.66797 10.8333C8.66797 12.03 9.15299 13.1133 9.93717 13.8975L8.40511 15.4296C7.22884 14.2533 6.5013 12.6283 6.5013 10.8333C6.5013 9.03843 7.22884 7.41343 8.40511 6.23716ZM17.5975 6.23716C18.7737 7.41343 19.5013 9.03843 19.5013 10.8333C19.5013 12.6283 18.7737 14.2533 17.5975 15.4296L16.0654 13.8975C16.8496 13.1133 17.3346 12.03 17.3346 10.8333C17.3346 9.63673 16.8496 8.5534 16.0654 7.76923L17.5975 6.23716ZM13.0013 13C11.8047 13 10.8346 12.03 10.8346 10.8333C10.8346 9.63673 11.8047 8.66668 13.0013 8.66668C14.198 8.66668 15.168 9.63673 15.168 10.8333C15.168 12.03 14.198 13 13.0013 13ZM13.0013 15.1667C13.6294 15.1667 14.1685 15.6141 14.2843 16.2315L15.7096 23.8333H10.293L11.7183 16.2315C11.8341 15.6141 12.3732 15.1667 13.0013 15.1667Z" fill="#111111"/>
</svg>
