<svg width="59" height="56" viewBox="0 0 59 56" fill="none" xmlns="http://www.w3.org/2000/svg">
<path d="M8.54271 0L12.6675 4.12478C8.445 8.34727 5.83333 14.1806 5.83333 20.6239C5.83333 27.0674 8.445 32.9007 12.6675 37.1232L8.54271 41.2479C3.2646 35.9696 0 28.6779 0 20.6239C0 12.5698 3.2646 5.27812 8.54271 0ZM49.7907 0C55.0687 5.27812 58.3333 12.5698 58.3333 20.6239C58.3333 28.6779 55.0687 35.9696 49.7907 41.2479L45.666 37.1232C49.8884 32.9007 52.5 27.0674 52.5 20.6239C52.5 14.1806 49.8884 8.34727 45.666 4.12478L49.7907 0ZM16.7923 8.24956L20.9171 12.3744C18.8058 14.4856 17.5 17.4023 17.5 20.6239C17.5 23.8456 18.8058 26.7623 20.9171 28.8737L16.7923 32.9984C13.6254 29.8315 11.6667 25.4565 11.6667 20.6239C11.6667 15.7914 13.6254 11.4164 16.7923 8.24956ZM41.5409 8.24956C44.7078 11.4164 46.6667 15.7914 46.6667 20.6239C46.6667 25.4565 44.7078 29.8315 41.5409 32.9984L37.4162 28.8737C39.5275 26.7623 40.8333 23.8456 40.8333 20.6239C40.8333 17.4023 39.5275 14.4856 37.4162 12.3744L41.5409 8.24956ZM29.1667 26.4572C25.9449 26.4572 23.3333 23.8456 23.3333 20.6239C23.3333 17.4023 25.9449 14.7906 29.1667 14.7906C32.3884 14.7906 35 17.4023 35 20.6239C35 23.8456 32.3884 26.4572 29.1667 26.4572ZM29.1667 32.2905C30.8577 32.2905 32.3091 33.4951 32.6209 35.1573L36.4583 55.6239H21.875L25.7125 35.1573C26.0243 33.4951 27.4756 32.2905 29.1667 32.2905Z" fill="#FDC500"/>
</svg>
