<svg width="77" height="77" viewBox="0 0 77 77" fill="none" xmlns="http://www.w3.org/2000/svg">
<path d="M76.165 38.0627L75.9074 37.8051C70.7161 32.7129 63.9595 30.1767 57.203 30.1569C62.0574 25.2826 65.0295 18.5657 65.0097 11.1553C57.5993 11.1355 50.8823 14.1076 46.0081 18.962C45.9883 12.0865 43.353 5.23089 38.0825 0C32.8318 5.23089 30.1767 12.0865 30.1569 18.962C25.2826 14.1076 18.5657 11.1355 11.1553 11.1553C11.1355 18.5657 14.1076 25.2826 18.962 30.1569C12.0865 30.1767 5.23089 32.812 0 38.0825C5.23089 43.3332 12.0865 45.9883 18.962 46.0081C14.2066 50.8031 11.2345 57.3615 11.1553 64.6332V65.0097H11.5317C18.8035 64.9304 25.3817 61.9583 30.1569 57.203C30.1767 63.9595 32.7327 70.6963 37.8051 75.9074L38.0627 76.1649L38.3202 75.9074C43.4124 70.7161 45.9684 63.9595 45.9684 57.203C50.7634 61.9583 57.3219 64.9304 64.5936 65.0097H64.9701V64.6332C64.8908 57.3615 61.9187 50.7832 57.1633 46.0081C63.9199 45.9883 70.6567 43.4323 75.8677 38.3599L76.165 38.0627Z" fill="white"/>
</svg>
