<svg width="64" height="59" viewBox="0 0 64 59" fill="none" xmlns="http://www.w3.org/2000/svg">
<path d="M25.3399 0C24.1471 0 23.055 1.04166 22.2654 2.92336L18.8548 11.0718L15.4442 2.92336C14.6546 1.04166 13.5625 0 12.3697 0C11.1768 0 10.0847 1.04166 9.29509 2.92336L1.14666 22.446C-0.38222 26.0918 -0.38222 32.0225 1.14666 35.6683L9.29509 55.1741C10.0847 57.0558 11.1768 58.0975 12.3697 58.0975C13.5625 58.0975 14.6546 57.0558 15.4442 55.1741L18.8548 47.0257L22.2654 55.1741C23.055 57.0558 24.1471 58.0975 25.3399 58.0975C26.5328 58.0975 27.6249 57.0558 28.4145 55.1741L31.8251 47.0257L35.2357 55.1741C36.0253 57.0558 37.1174 58.0975 38.3102 58.0975C39.5031 58.0975 40.5952 57.0558 41.3848 55.1741L44.7954 47.0257L48.2059 55.1741C48.9956 57.0558 50.0876 58.0975 51.2805 58.0975C52.4734 58.0975 53.5654 57.0558 54.3551 55.1741L62.5035 35.6683C63.2595 33.8538 63.646 31.4513 63.646 29.0655C63.646 26.6798 63.2595 24.2773 62.5035 22.4628L54.3551 2.95696C53.5654 1.07526 52.4734 0.0335999 51.2805 0.0335999C50.0876 0.0335999 48.9956 1.07526 48.2059 2.95696L44.7954 11.1054L41.3848 2.95696C40.5952 1.07526 39.5031 0.0335999 38.3102 0.0335999C37.1174 0.0335999 36.0253 1.07526 35.2357 2.95696L31.8251 11.0886L28.4145 2.94016C27.6249 1.04166 26.5328 0 25.3399 0ZM14.6714 54.8549C14.0329 56.3838 13.1929 57.2742 12.3697 57.2742C11.5464 57.2742 10.7064 56.4006 10.0679 54.8549L1.9195 35.3323C1.19706 33.6018 0.827444 31.3169 0.827444 29.0487C0.827444 26.7638 1.19706 24.4957 1.9195 22.7652L10.0679 3.25937C10.7064 1.73049 11.5464 0.840046 12.3697 0.840046C13.1929 0.840046 14.0329 1.71369 14.6714 3.25937L18.4012 12.1806L14.1169 22.446C12.5881 26.0918 12.5881 32.0225 14.1169 35.6683L18.4012 45.9336L14.6714 54.8549ZM18.8548 13.2559L22.8198 22.7652C24.2647 26.2262 24.2647 31.8713 22.8198 35.3323L18.8548 44.8416L14.8898 35.3323C14.1673 33.6018 13.7977 31.3169 13.7977 29.0487C13.7977 26.7638 14.1673 24.4957 14.8898 22.7652L18.8548 13.2559ZM48.9788 3.24257C49.6172 1.71369 50.4573 0.823242 51.2805 0.823242C52.1038 0.823242 52.9438 1.69689 53.5822 3.24257L61.7307 22.7652C63.1755 26.2262 63.1755 31.8713 61.7307 35.3323L53.5822 54.8549C52.9438 56.3838 52.1038 57.2742 51.2805 57.2742C50.4573 57.2742 49.6172 56.4006 48.9788 54.8549L45.249 45.9336L49.5332 35.6683C50.2893 33.8538 50.6757 31.4513 50.6757 29.0655C50.6757 26.6798 50.2893 24.2773 49.5332 22.4628L45.249 12.1974L48.9788 3.24257ZM44.7954 44.8416L40.8304 35.3323C40.1079 33.6018 39.7383 31.3169 39.7383 29.0487C39.7383 26.7638 40.1079 24.4957 40.8304 22.7652L44.7954 13.2559L48.7604 22.7652C50.2053 26.2262 50.2053 31.8713 48.7604 35.3323L44.7954 44.8416ZM36.0085 3.24257C36.6469 1.71369 37.487 0.823242 38.3102 0.823242C39.1335 0.823242 39.9735 1.69689 40.612 3.24257L44.3417 12.1638L40.0575 22.446C38.5286 26.0918 38.5286 32.0225 40.0575 35.6683L44.3417 45.9336L40.612 54.8549C39.9735 56.3838 39.1335 57.2742 38.3102 57.2742C37.487 57.2742 36.6469 56.4006 36.0085 54.8549L32.2787 45.9336L36.5629 35.6683C37.319 33.8538 37.7054 31.4513 37.7054 29.0655C37.7054 26.6798 37.319 24.2773 36.5629 22.4628L32.2787 12.1974L36.0085 3.24257ZM31.8251 44.8416L27.8601 35.3323C27.1376 33.6018 26.768 31.3169 26.768 29.0487C26.768 26.7638 27.1376 24.4957 27.8601 22.7652L31.8251 13.2559L35.7901 22.7652C37.235 26.2262 37.235 31.8713 35.7901 35.3323L31.8251 44.8416ZM31.3715 12.1638L27.0872 22.4292C25.5584 26.075 25.5584 32.0057 27.0872 35.6515L31.3715 45.9168L27.6417 54.8381C27.0032 56.367 26.1632 57.2574 25.3399 57.2574C24.5167 57.2574 23.6767 56.3838 23.0382 54.8381L19.3084 45.9168L23.5927 35.6515C24.3487 33.837 24.7351 31.4345 24.7351 29.0487C24.7351 26.663 24.3487 24.2605 23.5927 22.446L19.3084 12.1806L23.0382 3.25937C23.6767 1.73049 24.5167 0.840046 25.3399 0.840046C26.1632 0.840046 27.0032 1.71369 27.6417 3.25937L31.3715 12.1638Z" fill="white"/>
</svg>
